<svg width="16" height="18" viewBox="0 0 16 18" fill="none" xmlns="http://www.w3.org/2000/svg">
<path fill-rule="evenodd" clip-rule="evenodd" d="M6.6265 0.407227L7.66704 1.03155C8.98698 1.81148 10.0009 3.01888 10.5409 4.45377C10.7242 4.04086 10.9423 3.64033 11.1446 3.23568L11.9547 4.04581C13.7732 5.86428 15.5 8.58951 15.5 11.2363C15.5 14.7857 13.3116 17.036 9.81006 17.425L8.66216 17.5522L8.91321 16.4249C9.10894 15.543 9.14445 14.9665 9.10315 14.5627C9.0536 14.0548 8.81246 13.6559 8.51186 13.2595C8.22448 12.8797 7.93957 12.499 7.71164 12.0786C6.77433 12.8194 6.41096 13.4883 6.29452 14.0391C6.14587 14.7444 6.35646 15.4653 6.74129 16.235L7.42012 17.5927L5.91216 17.425C3.78484 17.1888 1.68889 15.7676 0.863066 13.6939C7.85589e-05 11.5245 0.610364 8.89919 3.39835 6.48283C5.2482 4.8799 6.22763 2.80129 6.6265 0.407227ZM7.7265 3.13245C7.09722 4.89972 5.88904 6.51008 4.47936 7.73147C2.07538 9.81503 1.85984 11.7318 2.39828 13.0828C2.7988 14.0903 3.66344 14.9186 4.68829 15.3885C4.56784 14.8321 4.56446 14.2567 4.67838 13.6989C4.9476 12.4222 5.86592 11.2255 7.62988 10.1231L8.5193 9.56728L8.85128 10.5624C9.14197 11.4345 9.74482 12.0514 10.2164 12.8169C10.735 13.6592 10.8341 14.6255 10.7284 15.59C12.892 15.0491 13.8483 13.4082 13.8483 11.2363C13.8483 9.40129 12.7417 7.60099 11.6434 6.19379C11.1908 7.2079 10.237 7.56466 9.30631 8.03042V6.69424C9.30631 5.56368 8.84632 4.18538 7.7265 3.13328V3.13245Z" fill="#F96577"/>
</svg>
