<svg width="15" height="21" viewBox="0 0 15 21" fill="none" xmlns="http://www.w3.org/2000/svg">
<path fill-rule="evenodd" clip-rule="evenodd" d="M7.22237 0.5C3.23989 0.5 0 3.74933 0 7.74321C0 12.6998 6.46323 19.9763 6.7384 20.2837C6.99692 20.5724 7.44819 20.5719 7.7062 20.2837C7.98137 19.9763 14.4446 12.6998 14.4446 7.74321C14.4446 3.74933 11.2047 0.5 7.22237 0.5ZM7.22237 11.3875C5.21861 11.3875 3.58868 9.75267 3.58868 7.74321C3.58868 5.73374 5.21872 4.09902 7.22237 4.09902C9.22587 4.09902 10.8559 5.73381 10.8559 7.74328C10.8559 9.75274 9.22587 11.3875 7.22237 11.3875Z" fill="#384C7F"/>
</svg>
