<svg xmlns="http://www.w3.org/2000/svg" xmlns:xlink="http://www.w3.org/1999/xlink" width="500" zoomAndPan="magnify" viewBox="0 0 375 374.999991" height="500" preserveAspectRatio="xMidYMid meet" version="1.0"><defs><filter x="0%" y="0%" width="100%" height="100%" id="69f3c9b446"><feColorMatrix values="0 0 0 0 1 0 0 0 0 1 0 0 0 0 1 0 0 0 1 0" color-interpolation-filters="sRGB"/></filter><clipPath id="b964df74f8"><path d="M 84 11.25 L 320 11.25 L 320 290 L 84 290 Z M 84 11.25 " clip-rule="nonzero"/></clipPath><clipPath id="d60ff0f934"><path d="M 0 240 L 124 240 L 124 363.75 L 0 363.75 Z M 0 240 " clip-rule="nonzero"/></clipPath><clipPath id="e435d326f8"><path d="M 271 352 L 349 352 L 349 363.75 L 271 363.75 Z M 271 352 " clip-rule="nonzero"/></clipPath><mask id="e0c9d1232d"><g filter="url(#69f3c9b446)"><rect x="-37.5" width="450" fill="#000000" y="-37.499999" height="449.999989" fill-opacity="0.74"/></g></mask><clipPath id="5bebdfc388"><path d="M 130 79 L 236.160156 79 L 236.160156 126.679688 L 130 126.679688 Z M 130 79 " clip-rule="nonzero"/></clipPath><mask id="5791de00cc"><g filter="url(#69f3c9b446)"><rect x="-166.5" width="540" fill="#000000" y="-245.499998" height="539.999987" fill-opacity="0.35"/></g></mask><clipPath id="b37f06a20b"><path d="M 1 1 L 106 1 L 106 47.679688 L 1 47.679688 Z M 1 1 " clip-rule="nonzero"/></clipPath><clipPath id="36f66ab1ad"><rect x="0" width="107" y="0" height="48"/></clipPath><clipPath id="48b04d989b"><path d="M 0.238281 0.679688 L 79 0.679688 L 79 84 L 0.238281 84 Z M 0.238281 0.679688 " clip-rule="nonzero"/></clipPath><mask id="3a833a53d9"><g filter="url(#69f3c9b446)"><rect x="-166.5" width="540" fill="#000000" y="-245.499998" height="539.999987" fill-opacity="0.35"/></g></mask><clipPath id="1fa5dbcf5b"><path d="M 0.238281 0.679688 L 78.960938 0.679688 L 78.960938 83.960938 L 0.238281 83.960938 Z M 0.238281 0.679688 " clip-rule="nonzero"/></clipPath><clipPath id="d55a0beb76"><rect x="0" width="79" y="0" height="84"/></clipPath><clipPath id="d0cbe7c531"><rect x="0" width="237" y="0" height="127"/></clipPath><mask id="21d1820ef7"><g filter="url(#69f3c9b446)"><rect x="-37.5" width="450" fill="#000000" y="-37.499999" height="449.999989" fill-opacity="0.26"/></g></mask><clipPath id="feb1388d06"><rect x="0" width="336" y="0" height="262"/></clipPath><mask id="12a96e0712"><g filter="url(#69f3c9b446)"><rect x="-37.5" width="450" fill="#000000" y="-37.499999" height="449.999989" fill-opacity="0.35"/></g></mask><clipPath id="942f516c7b"><path d="M 1 1 L 7 1 L 7 16.839844 L 1 16.839844 Z M 1 1 " clip-rule="nonzero"/></clipPath><clipPath id="885c48f4d7"><rect x="0" width="8" y="0" height="17"/></clipPath><mask id="3cb1a2856a"><g filter="url(#69f3c9b446)"><rect x="-37.5" width="450" fill="#000000" y="-37.499999" height="449.999989" fill-opacity="0.35"/></g></mask><clipPath id="8168e4b908"><path d="M 0.160156 1 L 10 1 L 10 31.878906 L 0.160156 31.878906 Z M 0.160156 1 " clip-rule="nonzero"/></clipPath><clipPath id="5ecb552614"><rect x="0" width="10" y="0" height="32"/></clipPath></defs><g clip-path="url(#b964df74f8)"><path fill="#51dbd3" d="M 146.503906 246.757812 L 181.785156 178.382812 L 235.457031 282.390625 C 255.648438 286.996094 276.097656 289.316406 296.808594 289.351562 C 301.476562 289.351562 313.019531 289.402344 319.46875 278.367188 L 181.785156 11.359375 L 84.605469 199.679688 C 103.398438 217.792969 124.03125 233.488281 146.503906 246.757812 Z M 146.503906 246.757812 " fill-opacity="1" fill-rule="nonzero"/></g><g clip-path="url(#d60ff0f934)"><path fill="#f6f7ff" d="M 63.648438 240.304688 L 0 363.632812 L 86.1875 363.632812 L 123.433594 291.449219 C 101.480469 276.765625 81.550781 259.71875 63.648438 240.304688 Z M 63.648438 240.304688 " fill-opacity="1" fill-rule="nonzero"/></g><g clip-path="url(#e435d326f8)"><path fill="#f6f7ff" d="M 271.734375 352.699219 L 277.378906 363.632812 L 348.4375 363.632812 C 322.601562 361.878906 297.035156 358.234375 271.734375 352.699219 Z M 271.734375 352.699219 " fill-opacity="1" fill-rule="nonzero"/></g><g mask="url(#e0c9d1232d)"><g transform="matrix(1, 0, 0, 1, 84, 163)"><g clip-path="url(#d0cbe7c531)"><g clip-path="url(#5bebdfc388)"><g mask="url(#5791de00cc)"><g transform="matrix(1, 0, 0, 1, 130, 79)"><g clip-path="url(#36f66ab1ad)"><g clip-path="url(#b37f06a20b)"><path fill="#1a2e46" d="M 82.808594 47.351562 C 87.476562 47.351562 99.019531 47.402344 105.46875 36.367188 L 99.191406 24.199219 C 61.675781 20.25 29.238281 12.152344 1.195312 1.160156 L 21.445312 40.402344 C 29.457031 42.214844 40.996094 44.035156 53.257812 45.738281 C 63.078125 46.816406 72.929688 47.351562 82.808594 47.351562 Z M 82.808594 47.351562 " fill-opacity="1" fill-rule="nonzero"/></g></g></g></g></g><g clip-path="url(#48b04d989b)"><g mask="url(#3a833a53d9)"><g><g clip-path="url(#d55a0beb76)"><g clip-path="url(#1fa5dbcf5b)"><path fill="#1a2e46" d="M 78.304688 53.132812 C 67.199219 45.929688 56.683594 37.945312 46.761719 29.183594 C 36.839844 20.417969 27.621094 10.972656 19.097656 0.839844 L 0.605469 36.679688 C 19.398438 54.792969 40.03125 70.488281 62.503906 83.757812 Z M 78.304688 53.132812 " fill-opacity="1" fill-rule="nonzero"/></g></g></g></g></g></g></g></g><path fill="#f6f7ff" d="M 375 340.722656 C 375 340.722656 80.582031 348.351562 40.125 81.339844 C 39.339844 76.164062 38.652344 70.878906 38.0625 65.484375 C 39.140625 72.058594 76.972656 289.9375 340.355469 272.644531 L 365.359375 321.742188 Z M 375 340.722656 " fill-opacity="1" fill-rule="nonzero"/><g mask="url(#21d1820ef7)"><g transform="matrix(1, 0, 0, 1, 39, 80)"><g clip-path="url(#feb1388d06)"><path fill="#1a2e46" d="M 336 260.722656 C 336 260.722656 41.582031 268.351562 1.125 1.339844 C 10.484375 53.335938 60.863281 215.847656 326.359375 241.769531 Z M 336 260.722656 " fill-opacity="1" fill-rule="nonzero"/></g></g></g><path fill="#51dbd3" d="M 42.617188 54.285156 L 45.15625 57.03125 L 47.484375 69.539062 L 42.273438 61.089844 C 42.574219 58.832031 42.6875 56.5625 42.617188 54.285156 Z M 30.214844 56.324219 L 28.636719 59.703125 L 30.414062 72.296875 L 32.660156 62.636719 C 31.671875 60.597656 30.859375 58.496094 30.214844 56.324219 Z M 41.203125 62.503906 L 37.519531 61.992188 L 34.195312 63.652344 C 34.195312 63.652344 24.488281 47.363281 32.679688 32.585938 C 45.15625 43.984375 41.203125 62.484375 41.203125 62.484375 Z M 38.75 45.632812 C 38.667969 45.125 38.488281 44.652344 38.21875 44.214844 C 37.949219 43.78125 37.601562 43.410156 37.1875 43.109375 C 36.769531 42.808594 36.308594 42.601562 35.808594 42.484375 C 35.308594 42.367188 34.804688 42.347656 34.296875 42.433594 C 33.789062 42.515625 33.316406 42.691406 32.878906 42.960938 C 32.441406 43.234375 32.070312 43.578125 31.773438 43.996094 C 31.472656 44.414062 31.261719 44.871094 31.144531 45.371094 C 31.027344 45.871094 31.007812 46.375 31.089844 46.882812 C 31.175781 47.390625 31.351562 47.863281 31.621094 48.300781 C 31.890625 48.738281 32.234375 49.109375 32.652344 49.410156 C 33.070312 49.710938 33.53125 49.917969 34.03125 50.035156 C 34.53125 50.15625 35.035156 50.171875 35.542969 50.089844 C 36.050781 50.007812 36.523438 49.828125 36.960938 49.558594 C 37.398438 49.289062 37.765625 48.941406 38.066406 48.523438 C 38.367188 48.109375 38.578125 47.648438 38.695312 47.148438 C 38.8125 46.644531 38.832031 46.140625 38.75 45.632812 Z M 38.75 45.632812 " fill-opacity="1" fill-rule="nonzero"/><path fill="#f6f7ff" d="M 113.679688 126.890625 C 113.679688 127.550781 113.648438 128.207031 113.585938 128.863281 C 113.519531 129.523438 113.421875 130.175781 113.292969 130.820312 C 113.164062 131.46875 113.003906 132.109375 112.8125 132.738281 C 112.621094 133.371094 112.398438 133.992188 112.148438 134.601562 C 111.894531 135.210938 111.613281 135.808594 111.300781 136.390625 C 110.988281 136.972656 110.652344 137.539062 110.285156 138.085938 C 109.917969 138.636719 109.523438 139.164062 109.105469 139.675781 C 108.6875 140.183594 108.246094 140.675781 107.777344 141.140625 C 107.3125 141.609375 106.824219 142.050781 106.3125 142.46875 C 105.800781 142.886719 105.273438 143.28125 104.722656 143.648438 C 104.175781 144.015625 103.609375 144.351562 103.027344 144.664062 C 102.445312 144.976562 101.847656 145.257812 101.238281 145.507812 C 100.628906 145.761719 100.007812 145.984375 99.378906 146.175781 C 98.746094 146.367188 98.105469 146.527344 97.457031 146.65625 C 96.8125 146.785156 96.160156 146.882812 95.503906 146.945312 C 94.84375 147.011719 94.1875 147.042969 93.527344 147.042969 C 92.867188 147.042969 92.207031 147.011719 91.550781 146.945312 C 90.894531 146.882812 90.242188 146.785156 89.59375 146.65625 C 88.949219 146.527344 88.308594 146.367188 87.675781 146.175781 C 87.042969 145.984375 86.425781 145.761719 85.8125 145.507812 C 85.203125 145.257812 84.609375 144.976562 84.027344 144.664062 C 83.445312 144.351562 82.878906 144.015625 82.328125 143.648438 C 81.78125 143.28125 81.25 142.886719 80.742188 142.46875 C 80.230469 142.050781 79.742188 141.609375 79.277344 141.140625 C 78.808594 140.675781 78.367188 140.183594 77.949219 139.675781 C 77.527344 139.164062 77.136719 138.636719 76.769531 138.085938 C 76.402344 137.539062 76.0625 136.972656 75.753906 136.390625 C 75.441406 135.808594 75.160156 135.210938 74.90625 134.601562 C 74.652344 133.992188 74.433594 133.371094 74.242188 132.738281 C 74.046875 132.109375 73.886719 131.46875 73.761719 130.820312 C 73.632812 130.175781 73.535156 129.523438 73.46875 128.863281 C 73.40625 128.207031 73.371094 127.550781 73.371094 126.890625 C 73.371094 126.230469 73.40625 125.570312 73.46875 124.914062 C 73.535156 124.257812 73.632812 123.605469 73.761719 122.957031 C 73.886719 122.308594 74.046875 121.671875 74.242188 121.039062 C 74.433594 120.40625 74.652344 119.785156 74.90625 119.175781 C 75.160156 118.566406 75.441406 117.972656 75.753906 117.390625 C 76.0625 116.808594 76.402344 116.242188 76.769531 115.691406 C 77.136719 115.144531 77.527344 114.613281 77.949219 114.105469 C 78.367188 113.59375 78.808594 113.105469 79.277344 112.636719 C 79.742188 112.171875 80.230469 111.730469 80.742188 111.308594 C 81.25 110.890625 81.78125 110.5 82.328125 110.132812 C 82.878906 109.765625 83.445312 109.425781 84.027344 109.113281 C 84.609375 108.804688 85.203125 108.523438 85.8125 108.269531 C 86.425781 108.015625 87.042969 107.792969 87.675781 107.601562 C 88.308594 107.410156 88.949219 107.25 89.59375 107.121094 C 90.242188 106.992188 90.894531 106.898438 91.550781 106.832031 C 92.207031 106.769531 92.867188 106.734375 93.527344 106.734375 C 94.1875 106.734375 94.84375 106.769531 95.503906 106.832031 C 96.160156 106.898438 96.8125 106.992188 97.457031 107.121094 C 98.105469 107.25 98.746094 107.410156 99.378906 107.601562 C 100.007812 107.792969 100.628906 108.015625 101.238281 108.269531 C 101.847656 108.523438 102.445312 108.804688 103.027344 109.113281 C 103.609375 109.425781 104.175781 109.765625 104.722656 110.132812 C 105.273438 110.5 105.800781 110.890625 106.3125 111.308594 C 106.824219 111.730469 107.3125 112.171875 107.777344 112.636719 C 108.246094 113.105469 108.6875 113.59375 109.105469 114.105469 C 109.523438 114.613281 109.917969 115.144531 110.285156 115.691406 C 110.652344 116.242188 110.988281 116.808594 111.300781 117.390625 C 111.613281 117.972656 111.894531 118.566406 112.148438 119.175781 C 112.398438 119.785156 112.621094 120.40625 112.8125 121.039062 C 113.003906 121.671875 113.164062 122.308594 113.292969 122.957031 C 113.421875 123.605469 113.519531 124.257812 113.585938 124.914062 C 113.648438 125.570312 113.679688 126.230469 113.679688 126.890625 Z M 113.679688 126.890625 " fill-opacity="1" fill-rule="nonzero"/><path fill="#f6f7ff" d="M 82.929688 81.339844 C 82.929688 81.65625 82.902344 81.964844 82.839844 82.273438 C 82.777344 82.582031 82.6875 82.878906 82.566406 83.171875 C 82.449219 83.460938 82.300781 83.734375 82.125 83.996094 C 81.953125 84.257812 81.753906 84.5 81.53125 84.722656 C 81.308594 84.941406 81.066406 85.140625 80.808594 85.316406 C 80.546875 85.488281 80.269531 85.636719 79.980469 85.757812 C 79.691406 85.878906 79.390625 85.96875 79.085938 86.027344 C 78.777344 86.089844 78.464844 86.121094 78.152344 86.121094 C 77.839844 86.121094 77.527344 86.089844 77.21875 86.027344 C 76.910156 85.96875 76.613281 85.878906 76.324219 85.757812 C 76.03125 85.636719 75.757812 85.488281 75.496094 85.316406 C 75.234375 85.140625 74.996094 84.941406 74.773438 84.722656 C 74.550781 84.5 74.351562 84.257812 74.179688 83.996094 C 74.003906 83.734375 73.855469 83.460938 73.738281 83.171875 C 73.617188 82.878906 73.527344 82.582031 73.464844 82.273438 C 73.402344 81.964844 73.371094 81.65625 73.371094 81.339844 C 73.371094 81.027344 73.402344 80.71875 73.464844 80.410156 C 73.527344 80.101562 73.617188 79.800781 73.738281 79.511719 C 73.855469 79.222656 74.003906 78.945312 74.179688 78.6875 C 74.351562 78.425781 74.550781 78.183594 74.773438 77.960938 C 74.996094 77.738281 75.234375 77.542969 75.496094 77.367188 C 75.757812 77.191406 76.03125 77.046875 76.324219 76.925781 C 76.613281 76.804688 76.910156 76.714844 77.21875 76.652344 C 77.527344 76.59375 77.839844 76.5625 78.152344 76.5625 C 78.464844 76.5625 78.777344 76.59375 79.085938 76.652344 C 79.390625 76.714844 79.691406 76.804688 79.980469 76.925781 C 80.269531 77.046875 80.546875 77.191406 80.808594 77.367188 C 81.066406 77.542969 81.308594 77.738281 81.53125 77.960938 C 81.753906 78.183594 81.953125 78.425781 82.125 78.6875 C 82.300781 78.945312 82.449219 79.222656 82.566406 79.511719 C 82.6875 79.800781 82.777344 80.101562 82.839844 80.410156 C 82.902344 80.71875 82.929688 81.027344 82.929688 81.339844 Z M 82.929688 81.339844 " fill-opacity="1" fill-rule="nonzero"/><path fill="#f6f7ff" d="M 73.371094 205.296875 C 73.371094 205.921875 73.3125 206.542969 73.1875 207.15625 C 73.066406 207.773438 72.886719 208.371094 72.644531 208.949219 C 72.40625 209.527344 72.113281 210.078125 71.765625 210.597656 C 71.414062 211.121094 71.019531 211.601562 70.578125 212.042969 C 70.132812 212.488281 69.652344 212.882812 69.128906 213.230469 C 68.609375 213.578125 68.058594 213.875 67.480469 214.113281 C 66.902344 214.355469 66.304688 214.535156 65.691406 214.65625 C 65.074219 214.78125 64.453125 214.839844 63.828125 214.839844 C 63.199219 214.839844 62.582031 214.78125 61.964844 214.65625 C 61.351562 214.535156 60.753906 214.355469 60.175781 214.113281 C 59.597656 213.875 59.046875 213.578125 58.523438 213.230469 C 58.003906 212.882812 57.519531 212.488281 57.078125 212.042969 C 56.636719 211.601562 56.238281 211.121094 55.890625 210.597656 C 55.542969 210.078125 55.25 209.527344 55.007812 208.949219 C 54.769531 208.371094 54.589844 207.773438 54.464844 207.15625 C 54.34375 206.542969 54.28125 205.921875 54.28125 205.296875 C 54.28125 204.667969 54.34375 204.046875 54.464844 203.433594 C 54.589844 202.820312 54.769531 202.222656 55.007812 201.644531 C 55.25 201.0625 55.542969 200.515625 55.890625 199.992188 C 56.238281 199.472656 56.636719 198.988281 57.078125 198.546875 C 57.519531 198.101562 58.003906 197.707031 58.523438 197.359375 C 59.046875 197.011719 59.597656 196.71875 60.175781 196.476562 C 60.753906 196.238281 61.351562 196.054688 61.964844 195.933594 C 62.582031 195.8125 63.199219 195.75 63.828125 195.75 C 64.453125 195.75 65.074219 195.8125 65.691406 195.933594 C 66.304688 196.054688 66.902344 196.238281 67.480469 196.476562 C 68.058594 196.71875 68.609375 197.011719 69.128906 197.359375 C 69.652344 197.707031 70.132812 198.101562 70.578125 198.546875 C 71.019531 198.988281 71.414062 199.472656 71.765625 199.992188 C 72.113281 200.515625 72.40625 201.0625 72.644531 201.644531 C 72.886719 202.222656 73.066406 202.820312 73.1875 203.433594 C 73.3125 204.046875 73.371094 204.667969 73.371094 205.296875 Z M 73.371094 205.296875 " fill-opacity="1" fill-rule="nonzero"/><g mask="url(#12a96e0712)"><g transform="matrix(1, 0, 0, 1, 41, 53)"><g clip-path="url(#885c48f4d7)"><g clip-path="url(#942f516c7b)"><path fill="#1a2e46" d="M 6.484375 16.511719 L 4.15625 4.003906 L 1.617188 1.257812 C 1.6875 3.527344 1.570312 5.785156 1.273438 8.035156 Z M 6.484375 16.511719 " fill-opacity="1" fill-rule="nonzero"/></g></g></g></g><g mask="url(#3cb1a2856a)"><g transform="matrix(1, 0, 0, 1, 32, 31)"><g clip-path="url(#5ecb552614)"><g clip-path="url(#8168e4b908)"><path fill="#1a2e46" d="M 0.679688 1.585938 L 2.292969 11.425781 C 2.800781 11.34375 3.304688 11.363281 3.808594 11.480469 C 4.308594 11.597656 4.769531 11.808594 5.1875 12.105469 C 5.601562 12.40625 5.949219 12.777344 6.21875 13.214844 C 6.488281 13.652344 6.667969 14.125 6.75 14.632812 C 6.832031 15.140625 6.816406 15.648438 6.695312 16.148438 C 6.578125 16.648438 6.371094 17.109375 6.070312 17.527344 C 5.769531 17.945312 5.398438 18.289062 4.960938 18.558594 C 4.523438 18.832031 4.050781 19.007812 3.542969 19.089844 L 5.484375 30.96875 L 9.167969 31.484375 C 9.167969 31.484375 13.15625 12.984375 0.679688 1.585938 Z M 0.679688 1.585938 " fill-opacity="1" fill-rule="nonzero"/></g></g></g></g></svg>