<svg width="20" height="18" viewBox="0 0 20 18" fill="none" xmlns="http://www.w3.org/2000/svg">
<path d="M6.97442 0.561918C6.92965 0.38865 6.82441 0.237099 6.67769 0.134631C6.53097 0.0321631 6.35245 -0.0144671 6.17436 0.00316055C5.99628 0.0207882 5.83036 0.101512 5.70658 0.230755C5.5828 0.359997 5.5093 0.529241 5.49937 0.707923C3.67932 1.30294 2.54828 2.22497 1.87526 3.29701C1.16724 4.42304 1.02623 5.62108 1.00223 6.54311L1.00023 6.63611L0.493215 7.26913C0.299067 7.51176 0.157281 7.79198 0.0767912 8.09212C-0.00369846 8.39226 -0.0211463 8.70582 0.025547 9.01303C0.0722403 9.32025 0.182062 9.61447 0.348093 9.87714C0.514123 10.1398 0.732762 10.3652 0.990231 10.5392L10.0575 16.6704C11.3396 17.5374 12.8519 18.0006 14.3997 18.0005H16.6077C17.0926 18.0005 17.5718 17.8966 18.0131 17.6957C18.4544 17.4949 18.8475 17.2018 19.1659 16.8362C19.4843 16.4705 19.7207 16.0409 19.859 15.5762C19.9973 15.1115 20.0344 14.6226 19.9678 14.1424C19.7298 12.4823 18.2948 11.3323 17.0157 10.7152C16.6007 10.5152 16.2577 10.2552 16.0297 9.91922L13.4466 5.47507C13.626 5.42487 13.7802 5.30975 13.8793 5.1521C13.9785 4.99446 14.0154 4.80557 13.983 4.62219C13.9506 4.43881 13.8511 4.27406 13.7039 4.15998C13.5567 4.04591 13.3723 3.99067 13.1866 4.00503C12.8559 4.03036 12.5279 4.03636 12.2026 4.02303C9.84251 3.92503 7.83745 2.82299 7.12843 1.03593C7.06729 0.881283 7.01585 0.722971 6.97442 0.561918ZM4.39134 2.86199L5.97839 5.60708C6.07684 5.77773 6.14071 5.96611 6.16634 6.16145C6.19198 6.35679 6.17889 6.55526 6.12782 6.74554C6.07674 6.93582 5.98868 7.11417 5.86867 7.27042C5.74866 7.42666 5.59904 7.55773 5.42837 7.65615L5.04336 7.87815L2.52328 6.1781C2.57528 5.48107 2.73029 4.75705 3.1463 4.09403C3.41231 3.67002 3.80432 3.244 4.39334 2.86199M6.4354 8.81618L9.22849 7.20313C9.39915 7.10468 9.58752 7.04081 9.78286 7.01518C9.9782 6.98954 10.1767 7.00263 10.367 7.0537C10.5572 7.10478 10.7356 7.19284 10.8918 7.31285C11.0481 7.43286 11.1791 7.58248 11.2776 7.75315L11.8016 8.66018C11.9 8.83083 11.9639 9.01921 11.9895 9.21454C12.0152 9.40988 12.0021 9.60836 11.951 9.79864C11.8999 9.98892 11.8119 10.1673 11.6919 10.3235C11.5718 10.4798 11.4222 10.6108 11.2516 10.7092L10.1685 11.3353L6.4354 8.81618ZM14.3697 14.9994H18.4618C18.3724 15.4242 18.1395 15.8054 17.8023 16.0787C17.465 16.3521 17.0439 16.501 16.6097 16.5004H14.4017C13.1538 16.5006 11.9344 16.1272 10.9005 15.4284L1.83226 9.2962C1.74641 9.23823 1.6735 9.1631 1.61813 9.07556C1.56275 8.98801 1.52611 8.88995 1.51051 8.78754C1.49492 8.68513 1.5007 8.5806 1.52751 8.48054C1.55431 8.38048 1.60155 8.28706 1.66625 8.20616L2.08127 7.68815L11.7136 14.1864C12.4981 14.716 13.4231 14.9991 14.3697 14.9994Z" fill="#4CCA67"/>
</svg>
