<svg width="38" height="33" viewBox="0 0 38 33" fill="none" xmlns="http://www.w3.org/2000/svg">
<path d="M29.0142 15.0191H25.7955C25.0764 15.0191 24.4331 14.5897 24.1565 13.9251L21.3338 7.14218C21.1518 6.70471 20.7033 6.43975 20.2328 6.4923C18.8081 6.65073 17.4073 6.24433 16.2881 5.34783C15.1688 4.45134 14.4653 3.17212 14.307 1.74577C14.2638 1.35729 14.0119 1.02349 13.6504 0.875868C13.2888 0.728241 12.8757 0.790463 12.5735 1.038L7.23686 5.40977C6.33707 6.14684 5.58614 7.03175 5.0049 8.03975L1.24779 14.5555C0.820946 15.2958 0.707523 16.1581 0.928475 16.9837C1.14943 17.8094 1.67826 18.4994 2.41761 18.9268L17.7944 27.8157C18.603 28.2832 19.524 28.5302 20.4577 28.5302H33.9858C35.7481 28.5302 37.1818 27.0947 37.1818 25.3302V23.1969C37.1818 18.6876 33.5178 15.0191 29.0142 15.0191ZM34.9551 22.1302H30.0795V17.2486C32.5556 17.6921 34.5121 19.6511 34.9551 22.1302ZM8.58607 7.0609L12.6092 3.76525C13.0756 5.03061 13.878 6.1494 14.9571 7.01368C16.2994 8.08888 17.9315 8.65955 19.6257 8.65948C19.6361 8.65948 19.6465 8.65948 19.657 8.65941L20.3545 10.3356L18.3974 11.467C17.8878 11.7616 17.7133 12.4139 18.0075 12.9241C18.2048 13.2663 18.5629 13.4576 18.931 13.4576C19.1117 13.4576 19.295 13.4115 19.4627 13.3145L21.1809 12.3213L22.0072 14.307L20.528 15.162C20.0185 15.4566 19.844 16.1089 20.1381 16.6191C20.3354 16.9613 20.6935 17.1526 21.0617 17.1526C21.2424 17.1526 21.4256 17.1065 21.5934 17.0095L23.1428 16.1138C23.8496 16.7691 24.7886 17.1524 25.7956 17.1524H27.9489V22.1302H20.7432L10.1612 16.0131C10.7545 14.5351 10.859 12.9119 10.4472 11.3449C10.052 9.84128 9.21754 8.52629 8.05276 7.54332C8.22237 7.37486 8.39978 7.21351 8.58607 7.0609ZM6.76576 9.25283C8.35355 10.6639 8.95603 12.9168 8.28778 14.9301L4.69097 12.8509L6.76576 9.25283ZM33.9858 26.3969H20.4577C19.8975 26.3969 19.345 26.2486 18.8597 25.9681L3.48295 17.0793C3.2365 16.9368 3.06022 16.7068 2.98657 16.4316C2.91292 16.1564 2.9507 15.8689 3.09303 15.6222L3.6257 14.6985L19.9252 24.1207C20.0871 24.2143 20.2709 24.2636 20.4579 24.2636H35.0511V25.3303C35.0511 25.9184 34.5732 26.3969 33.9858 26.3969Z" fill="#1C1C30"/>
<path d="M6.85511 30.6635H1.88352C1.29516 30.6635 0.818176 31.1411 0.818176 31.7302C0.818176 32.3193 1.29516 32.7969 1.88352 32.7969H6.85511C7.44346 32.7969 7.92045 32.3193 7.92045 31.7302C7.92045 31.1411 7.44346 30.6635 6.85511 30.6635Z" fill="#1C1C30"/>
<path d="M29.0142 30.6635H12.5369C11.9486 30.6635 11.4716 31.1411 11.4716 31.7302C11.4716 32.3193 11.9486 32.7969 12.5369 32.7969H29.0142C29.6026 32.7969 30.0795 32.3193 30.0795 31.7302C30.0795 31.1411 29.6026 30.6635 29.0142 30.6635Z" fill="#1C1C30"/>
<path d="M9.69701 26.3969H1.88451C1.29616 26.3969 0.819171 26.8745 0.819171 27.4635C0.819171 28.0526 1.29616 28.5302 1.88451 28.5302H9.69701C10.2854 28.5302 10.7624 28.0526 10.7624 27.4635C10.7624 26.8745 10.2854 26.3969 9.69701 26.3969Z" fill="#1C1C30"/>
<path d="M36.1165 30.6635H33.2756C32.6872 30.6635 32.2102 31.1411 32.2102 31.7302C32.2102 32.3193 32.6872 32.7969 33.2756 32.7969H36.1165C36.7048 32.7969 37.1818 32.3193 37.1818 31.7302C37.1818 31.1411 36.7048 30.6635 36.1165 30.6635Z" fill="#1C1C30"/>
</svg>
