<svg width="17" height="17" viewBox="0 0 17 17" fill="none" xmlns="http://www.w3.org/2000/svg">
<path fill-rule="evenodd" clip-rule="evenodd" d="M8.49988 0C3.80551 0 0 3.80568 0 8.49984C0 13.194 3.80551 16.9999 8.49988 16.9999C13.1941 16.9999 17 13.194 17 8.49984C17 3.80568 13.1941 0 8.49988 0ZM12.1746 10.1165H8.57094C8.55882 10.1165 8.54749 10.1136 8.53535 10.1131C8.52334 10.1137 8.512 10.1165 8.49976 10.1165C8.17509 10.1165 7.91188 9.85325 7.91188 9.52863V3.52746C7.91188 3.20285 8.17509 2.93962 8.49976 2.93962C8.82444 2.93962 9.08764 3.20285 9.08764 3.52746V8.94079H12.1743C12.499 8.94079 12.7622 9.20396 12.7622 9.52863C12.7622 9.85325 12.4992 10.1165 12.1746 10.1165Z" fill="#384C7F"/>
</svg>
