<svg xmlns="http://www.w3.org/2000/svg" xmlns:xlink="http://www.w3.org/1999/xlink" zoomAndPan="magnify" preserveAspectRatio="xMidYMid meet" version="1.0" viewBox="47.22 99.95 280.35 161.25"><defs><filter x="0%" y="0%" width="100%" height="100%" id="080e091554"><feColorMatrix values="0 0 0 0 1 0 0 0 0 1 0 0 0 0 1 0 0 0 1 0" color-interpolation-filters="sRGB"/></filter><g/><clipPath id="260b5502f2"><path d="M 156 99.933594 L 228 99.933594 L 228 184 L 156 184 Z M 156 99.933594 " clip-rule="nonzero"/></clipPath><clipPath id="824177dee4"><path d="M 131.015625 168 L 169 168 L 169 206.433594 L 131.015625 206.433594 Z M 131.015625 168 " clip-rule="nonzero"/></clipPath><clipPath id="2077410634"><path d="M 212 202 L 236 202 L 236 206.433594 L 212 206.433594 Z M 212 202 " clip-rule="nonzero"/></clipPath><mask id="06f1032bed"><g filter="url(#080e091554)"><rect x="-37.5" width="450" fill="#000000" y="-37.499999" height="449.999989" fill-opacity="0.74"/></g></mask><clipPath id="47aa3f321b"><path d="M 39 24 L 71.519531 24 L 71.519531 38.839844 L 39 38.839844 Z M 39 24 " clip-rule="nonzero"/></clipPath><mask id="39a7321d7e"><g filter="url(#080e091554)"><rect x="-238.5" width="540" fill="#000000" y="-227.499998" height="539.999987" fill-opacity="0.35"/></g></mask><clipPath id="f1629d30d8"><path d="M 0.601562 0.441406 L 32.519531 0.441406 L 32.519531 14.839844 L 0.601562 14.839844 Z M 0.601562 0.441406 " clip-rule="nonzero"/></clipPath><clipPath id="0ade1ac6eb"><rect x="0" width="33" y="0" height="15"/></clipPath><clipPath id="e6a86baeb3"><path d="M 0.238281 0.679688 L 25 0.679688 L 25 27 L 0.238281 27 Z M 0.238281 0.679688 " clip-rule="nonzero"/></clipPath><mask id="f15135bc59"><g filter="url(#080e091554)"><rect x="-238.5" width="540" fill="#000000" y="-227.499998" height="539.999987" fill-opacity="0.35"/></g></mask><clipPath id="c9ac7232b8"><path d="M 0.238281 0.679688 L 24 0.679688 L 24 26 L 0.238281 26 Z M 0.238281 0.679688 " clip-rule="nonzero"/></clipPath><clipPath id="67f531d7fc"><rect x="0" width="25" y="0" height="27"/></clipPath><clipPath id="72cec2e5a0"><rect x="0" width="72" y="0" height="39"/></clipPath><clipPath id="f01b23cd9b"><path d="M 142 120 L 244.265625 120 L 244.265625 200 L 142 200 Z M 142 120 " clip-rule="nonzero"/></clipPath><mask id="ede829e1c0"><g filter="url(#080e091554)"><rect x="-37.5" width="450" fill="#000000" y="-37.499999" height="449.999989" fill-opacity="0.26"/></g></mask><clipPath id="791b2fc57a"><path d="M 1 1 L 102 1 L 102 79.441406 L 1 79.441406 Z M 1 1 " clip-rule="nonzero"/></clipPath><clipPath id="a68ab705b4"><rect x="0" width="103" y="0" height="80"/></clipPath><mask id="251d8b0ff1"><g filter="url(#080e091554)"><rect x="-37.5" width="450" fill="#000000" y="-37.499999" height="449.999989" fill-opacity="0.35"/></g></mask><clipPath id="825ee4d6f0"><path d="M 0.519531 0.558594 L 2.679688 0.558594 L 2.679688 5.601562 L 0.519531 5.601562 Z M 0.519531 0.558594 " clip-rule="nonzero"/></clipPath><clipPath id="4bf9591ffb"><rect x="0" width="3" y="0" height="6"/></clipPath><mask id="e7f5171747"><g filter="url(#080e091554)"><rect x="-37.5" width="450" fill="#000000" y="-37.499999" height="449.999989" fill-opacity="0.35"/></g></mask><clipPath id="23a671e0a0"><path d="M 0.640625 0.078125 L 3.761719 0.078125 L 3.761719 9.679688 L 0.640625 9.679688 Z M 0.640625 0.078125 " clip-rule="nonzero"/></clipPath><clipPath id="ecd0834104"><rect x="0" width="4" y="0" height="10"/></clipPath></defs><g clip-path="url(#260b5502f2)"><path fill="#51dbd3" d="M 175.144531 170.875 L 185.773438 150.277344 L 201.941406 181.609375 C 208.023438 182.996094 214.179688 183.695312 220.417969 183.703125 C 221.824219 183.703125 225.304688 183.71875 227.246094 180.394531 L 185.773438 99.96875 L 156.5 156.695312 C 162.160156 162.148438 168.375 166.878906 175.144531 170.875 Z M 175.144531 170.875 " fill-opacity="1" fill-rule="nonzero"/></g><g clip-path="url(#824177dee4)"><path fill="#f6f7ff" d="M 150.1875 168.929688 L 131.015625 206.078125 L 156.976562 206.078125 L 168.195312 184.335938 C 161.582031 179.914062 155.582031 174.777344 150.1875 168.929688 Z M 150.1875 168.929688 " fill-opacity="1" fill-rule="nonzero"/></g><g clip-path="url(#2077410634)"><path fill="#f6f7ff" d="M 212.867188 202.785156 L 214.566406 206.078125 L 235.972656 206.078125 C 228.191406 205.550781 220.488281 204.453125 212.867188 202.785156 Z M 212.867188 202.785156 " fill-opacity="1" fill-rule="nonzero"/></g><g mask="url(#06f1032bed)"><g transform="matrix(1, 0, 0, 1, 156, 145)"><g clip-path="url(#72cec2e5a0)"><g clip-path="url(#47aa3f321b)"><g mask="url(#39a7321d7e)"><g transform="matrix(1, 0, 0, 1, 39, 24)"><g clip-path="url(#0ade1ac6eb)"><g clip-path="url(#f1629d30d8)"><path fill="#1a2e46" d="M 25.417969 14.703125 C 26.824219 14.703125 30.304688 14.71875 32.246094 11.394531 L 30.355469 7.730469 C 19.054688 6.539062 9.285156 4.101562 0.835938 0.789062 L 6.9375 12.613281 C 9.351562 13.15625 12.824219 13.707031 16.519531 14.21875 C 19.476562 14.542969 22.445312 14.703125 25.417969 14.703125 Z M 25.417969 14.703125 " fill-opacity="1" fill-rule="nonzero"/></g></g></g></g></g><g clip-path="url(#e6a86baeb3)"><g mask="url(#f15135bc59)"><g transform="matrix(1, 0, 0, 1, 0.000000000000028422, 0)"><g clip-path="url(#67f531d7fc)"><g clip-path="url(#c9ac7232b8)"><path fill="#1a2e46" d="M 23.90625 16.648438 C 17.175781 12.285156 11.230469 7.035156 6.070312 0.898438 L 0.5 11.695312 C 6.160156 17.148438 12.375 21.878906 19.144531 25.875 Z M 23.90625 16.648438 " fill-opacity="1" fill-rule="nonzero"/></g></g></g></g></g></g></g></g><path fill="#f6f7ff" d="M 243.972656 199.179688 C 243.972656 199.179688 155.289062 201.476562 143.101562 121.046875 C 142.867188 119.488281 142.660156 117.898438 142.480469 116.273438 C 142.804688 118.25 154.199219 183.882812 233.539062 178.671875 L 241.070312 193.460938 Z M 243.972656 199.179688 " fill-opacity="1" fill-rule="nonzero"/><g clip-path="url(#f01b23cd9b)"><g mask="url(#ede829e1c0)"><g transform="matrix(1, 0, 0, 1, 142, 120)"><g clip-path="url(#a68ab705b4)"><g clip-path="url(#791b2fc57a)"><path fill="#1a2e46" d="M 101.972656 79.179688 C 101.972656 79.179688 13.289062 81.476562 1.101562 1.046875 C 3.921875 16.710938 19.097656 65.660156 99.070312 73.46875 Z M 101.972656 79.179688 " fill-opacity="1" fill-rule="nonzero"/></g></g></g></g></g><path fill="#51dbd3" d="M 143.851562 112.898438 L 144.617188 113.726562 L 145.320312 117.492188 L 143.75 114.949219 C 143.839844 114.269531 143.875 113.585938 143.851562 112.898438 Z M 140.117188 113.511719 L 139.640625 114.53125 L 140.175781 118.324219 L 140.851562 115.414062 C 140.554688 114.800781 140.3125 114.167969 140.117188 113.511719 Z M 143.425781 115.375 L 142.316406 115.21875 L 141.316406 115.71875 C 141.316406 115.71875 138.390625 110.8125 140.859375 106.363281 C 144.617188 109.796875 143.425781 115.367188 143.425781 115.367188 Z M 142.6875 110.292969 C 142.664062 110.140625 142.609375 109.996094 142.527344 109.867188 C 142.445312 109.734375 142.34375 109.621094 142.214844 109.53125 C 142.089844 109.441406 141.953125 109.378906 141.800781 109.34375 C 141.652344 109.308594 141.5 109.304688 141.347656 109.328125 C 141.191406 109.351562 141.050781 109.40625 140.917969 109.488281 C 140.789062 109.570312 140.675781 109.671875 140.585938 109.796875 C 140.496094 109.925781 140.433594 110.0625 140.398438 110.214844 C 140.363281 110.363281 140.355469 110.515625 140.382812 110.667969 C 140.40625 110.820312 140.460938 110.964844 140.539062 111.097656 C 140.621094 111.226562 140.726562 111.339844 140.851562 111.429688 C 140.976562 111.519531 141.117188 111.582031 141.265625 111.617188 C 141.417969 111.652344 141.570312 111.660156 141.722656 111.632812 C 141.875 111.609375 142.015625 111.554688 142.148438 111.472656 C 142.28125 111.394531 142.390625 111.289062 142.484375 111.164062 C 142.574219 111.039062 142.636719 110.898438 142.671875 110.75 C 142.707031 110.597656 142.710938 110.445312 142.6875 110.292969 Z M 142.6875 110.292969 " fill-opacity="1" fill-rule="nonzero"/><path fill="#f6f7ff" d="M 165.257812 134.769531 C 165.257812 135.167969 165.21875 135.5625 165.140625 135.953125 C 165.0625 136.34375 164.949219 136.722656 164.796875 137.089844 C 164.644531 137.460938 164.457031 137.808594 164.234375 138.140625 C 164.015625 138.472656 163.761719 138.777344 163.480469 139.0625 C 163.199219 139.34375 162.890625 139.59375 162.558594 139.816406 C 162.230469 140.039062 161.878906 140.222656 161.511719 140.375 C 161.144531 140.53125 160.761719 140.644531 160.371094 140.722656 C 159.980469 140.800781 159.585938 140.839844 159.1875 140.839844 C 158.789062 140.839844 158.394531 140.800781 158.003906 140.722656 C 157.613281 140.644531 157.234375 140.53125 156.863281 140.375 C 156.496094 140.222656 156.144531 140.039062 155.816406 139.816406 C 155.484375 139.59375 155.175781 139.34375 154.894531 139.0625 C 154.613281 138.777344 154.363281 138.472656 154.140625 138.140625 C 153.917969 137.808594 153.730469 137.460938 153.578125 137.089844 C 153.425781 136.722656 153.3125 136.34375 153.234375 135.953125 C 153.15625 135.5625 153.117188 135.167969 153.117188 134.769531 C 153.117188 134.371094 153.15625 133.976562 153.234375 133.582031 C 153.3125 133.191406 153.425781 132.8125 153.578125 132.445312 C 153.730469 132.078125 153.917969 131.726562 154.140625 131.394531 C 154.363281 131.0625 154.613281 130.757812 154.894531 130.476562 C 155.175781 130.195312 155.484375 129.941406 155.816406 129.71875 C 156.144531 129.5 156.496094 129.3125 156.863281 129.160156 C 157.234375 129.007812 157.613281 128.890625 158.003906 128.8125 C 158.394531 128.734375 158.789062 128.695312 159.1875 128.695312 C 159.585938 128.695312 159.980469 128.734375 160.371094 128.8125 C 160.761719 128.890625 161.144531 129.007812 161.511719 129.160156 C 161.878906 129.3125 162.230469 129.5 162.558594 129.71875 C 162.890625 129.941406 163.199219 130.195312 163.480469 130.476562 C 163.761719 130.757812 164.015625 131.0625 164.234375 131.394531 C 164.457031 131.726562 164.644531 132.078125 164.796875 132.445312 C 164.949219 132.8125 165.0625 133.191406 165.140625 133.582031 C 165.21875 133.976562 165.257812 134.371094 165.257812 134.769531 Z M 165.257812 134.769531 " fill-opacity="1" fill-rule="nonzero"/><path fill="#f6f7ff" d="M 155.996094 121.046875 C 155.996094 121.238281 155.960938 121.421875 155.886719 121.597656 C 155.8125 121.777344 155.710938 121.929688 155.574219 122.066406 C 155.441406 122.199219 155.285156 122.304688 155.109375 122.378906 C 154.929688 122.453125 154.746094 122.488281 154.554688 122.488281 C 154.367188 122.488281 154.183594 122.453125 154.003906 122.378906 C 153.828125 122.304688 153.671875 122.199219 153.539062 122.066406 C 153.402344 121.929688 153.300781 121.777344 153.226562 121.597656 C 153.152344 121.421875 153.117188 121.238281 153.117188 121.046875 C 153.117188 120.855469 153.152344 120.671875 153.226562 120.496094 C 153.300781 120.320312 153.402344 120.164062 153.539062 120.03125 C 153.671875 119.894531 153.828125 119.792969 154.003906 119.71875 C 154.183594 119.644531 154.367188 119.609375 154.554688 119.609375 C 154.746094 119.609375 154.929688 119.644531 155.109375 119.71875 C 155.285156 119.792969 155.441406 119.894531 155.574219 120.03125 C 155.710938 120.164062 155.8125 120.320312 155.886719 120.496094 C 155.960938 120.671875 155.996094 120.855469 155.996094 121.046875 Z M 155.996094 121.046875 " fill-opacity="1" fill-rule="nonzero"/><path fill="#f6f7ff" d="M 153.117188 158.386719 C 153.117188 158.765625 153.042969 159.132812 152.898438 159.484375 C 152.753906 159.835938 152.542969 160.148438 152.273438 160.417969 C 152.003906 160.6875 151.695312 160.894531 151.34375 161.042969 C 150.988281 161.1875 150.621094 161.261719 150.242188 161.261719 C 149.859375 161.261719 149.492188 161.1875 149.140625 161.042969 C 148.789062 160.894531 148.476562 160.6875 148.207031 160.417969 C 147.9375 160.148438 147.730469 159.835938 147.585938 159.484375 C 147.441406 159.132812 147.367188 158.765625 147.367188 158.386719 C 147.367188 158.003906 147.441406 157.636719 147.585938 157.285156 C 147.730469 156.933594 147.9375 156.621094 148.207031 156.351562 C 148.476562 156.082031 148.789062 155.875 149.140625 155.730469 C 149.492188 155.582031 149.859375 155.511719 150.242188 155.511719 C 150.621094 155.511719 150.988281 155.582031 151.34375 155.730469 C 151.695312 155.875 152.003906 156.082031 152.273438 156.351562 C 152.542969 156.621094 152.753906 156.933594 152.898438 157.285156 C 153.042969 157.636719 153.117188 158.003906 153.117188 158.386719 Z M 153.117188 158.386719 " fill-opacity="1" fill-rule="nonzero"/><g mask="url(#251d8b0ff1)"><g transform="matrix(1, 0, 0, 1, 143, 112)"><g clip-path="url(#4bf9591ffb)"><g clip-path="url(#825ee4d6f0)"><path fill="#1a2e46" d="M 2.320312 5.484375 L 1.617188 1.71875 L 0.851562 0.890625 C 0.875 1.574219 0.839844 2.253906 0.75 2.933594 Z M 2.320312 5.484375 " fill-opacity="1" fill-rule="nonzero"/></g></g></g></g><g mask="url(#e7f5171747)"><g transform="matrix(1, 0, 0, 1, 140, 106)"><g clip-path="url(#ecd0834104)"><g clip-path="url(#23a671e0a0)"><path fill="#1a2e46" d="M 0.859375 0.363281 L 1.34375 3.328125 C 1.5 3.300781 1.652344 3.308594 1.800781 3.34375 C 1.953125 3.378906 2.089844 3.441406 2.214844 3.53125 C 2.34375 3.621094 2.445312 3.734375 2.527344 3.863281 C 2.609375 3.996094 2.664062 4.140625 2.6875 4.292969 C 2.710938 4.445312 2.707031 4.597656 2.671875 4.75 C 2.636719 4.898438 2.574219 5.039062 2.484375 5.164062 C 2.390625 5.289062 2.28125 5.394531 2.148438 5.476562 C 2.015625 5.554688 1.875 5.609375 1.722656 5.632812 L 2.308594 9.214844 L 3.414062 9.367188 C 3.414062 9.367188 4.617188 3.796875 0.859375 0.363281 Z M 0.859375 0.363281 " fill-opacity="1" fill-rule="nonzero"/></g></g></g></g><g fill="#51dbd3" fill-opacity="1"><g transform="translate(139.200113, 239.373735)"><g><path d="M 16.378906 -6.265625 L 18.40625 0 L 25.265625 0 L 16.550781 -24.148438 L 8.855469 -24.148438 L 0.140625 0 L 6.824219 0 L 8.855469 -6.265625 Z M 12.632812 -18.582031 L 14.871094 -11.164062 L 10.394531 -11.164062 Z M 12.632812 -18.582031 "/></g></g></g><g fill="#51dbd3" fill-opacity="1"><g transform="translate(166.179517, 239.373735)"><g><path d="M 9.097656 0 L 9.097656 -24.148438 L 2.800781 -24.148438 L 2.800781 0 Z M 9.097656 0 "/></g></g></g><g fill="#51dbd3" fill-opacity="1"><g transform="translate(179.407027, 239.373735)"><g><path d="M 14.3125 -12.878906 L 14.3125 -7.980469 L 19.003906 -7.980469 C 18.128906 -5.320312 16.519531 -4.128906 14.066406 -4.128906 C 11.09375 -4.128906 8.46875 -6.195312 8.46875 -12.285156 C 8.46875 -17.496094 11.023438 -20.015625 14.101562 -20.015625 C 16.65625 -20.015625 18.230469 -18.792969 18.757812 -16.203125 L 18.828125 -15.851562 L 25.125 -15.851562 L 25.089844 -16.203125 C 24.601562 -20.960938 21.066406 -24.636719 14.171875 -24.636719 C 7.558594 -24.636719 1.890625 -20.296875 1.890625 -11.898438 C 1.890625 -3.78125 6.402344 0.488281 12.84375 0.488281 C 15.398438 0.488281 17.042969 0.105469 18.40625 -1.050781 L 19.457031 -3.710938 L 20.050781 0 L 24.953125 0 L 24.953125 -12.878906 Z M 14.3125 -12.878906 "/></g></g></g><g fill="#51dbd3" fill-opacity="1"><g transform="translate(208.20602, 239.373735)"><g><path d="M 14.242188 -24.636719 C 6.71875 -24.636719 1.890625 -19.84375 1.890625 -12.074219 C 1.890625 -4.339844 6.71875 0.488281 14.242188 0.488281 C 21.765625 0.488281 26.597656 -4.339844 26.597656 -12.074219 C 26.597656 -19.84375 21.765625 -24.636719 14.242188 -24.636719 Z M 14.242188 -4.128906 C 10.601562 -4.128906 8.328125 -6.964844 8.328125 -12.074219 C 8.328125 -17.21875 10.601562 -20.015625 14.242188 -20.015625 C 17.882812 -20.015625 20.15625 -17.21875 20.15625 -12.074219 C 20.15625 -6.964844 17.882812 -4.128906 14.242188 -4.128906 Z M 14.242188 -4.128906 "/></g></g></g><path stroke-linecap="butt" transform="matrix(0.75, 0, 0, 0.75, 43.824196, 246.873764)" fill="none" stroke-linejoin="miter" d="M 16.807323 13.772483 L 14.44274 4.829774 C 14.41149 4.720399 14.31774 4.668315 14.208365 4.668315 L 12.052114 4.668315 C 11.942739 4.668315 11.848989 4.720399 11.817739 4.829774 L 9.458364 13.772483 C 9.416698 13.907899 9.468781 14.001649 9.614614 14.001649 L 10.968781 14.001649 C 11.078156 14.001649 11.171906 13.959983 11.197948 13.840191 L 11.567739 12.319357 L 14.69274 12.319357 L 15.062531 13.840191 C 15.088573 13.959983 15.182323 14.001649 15.291698 14.001649 L 16.651073 14.001649 C 16.796906 14.001649 16.843781 13.907899 16.807323 13.772483 Z M 11.937531 10.824566 L 13.010448 6.470399 L 13.250031 6.470399 L 14.322948 10.824566 Z M 24.057324 6.21519 C 24.177115 6.21519 24.260449 6.131857 24.260449 6.012065 L 24.260449 4.866232 C 24.260449 4.74644 24.177115 4.668315 24.057324 4.668315 L 18.062531 4.668315 C 17.94274 4.668315 17.859406 4.74644 17.859406 4.866232 L 17.859406 6.012065 C 17.859406 6.131857 17.94274 6.21519 18.062531 6.21519 L 20.187532 6.21519 L 20.187532 12.454774 L 18.062531 12.454774 C 17.94274 12.454774 17.859406 12.532899 17.859406 12.652691 L 17.859406 13.803733 C 17.859406 13.918316 17.94274 14.001649 18.062531 14.001649 L 24.057324 14.001649 C 24.177115 14.001649 24.260449 13.918316 24.260449 13.803733 L 24.260449 12.652691 C 24.260449 12.532899 24.177115 12.454774 24.057324 12.454774 L 21.932323 12.454774 L 21.932323 6.21519 Z M 32.125032 8.933941 L 25.859407 8.933941 C 25.739615 8.933941 25.66149 9.012066 25.66149 9.137066 L 25.66149 10.116232 C 25.66149 10.236024 25.739615 10.314149 25.859407 10.314149 L 32.125032 10.314149 C 32.244824 10.314149 32.322949 10.236024 32.322949 10.116232 L 32.322949 9.137066 C 32.322949 9.012066 32.244824 8.933941 32.125032 8.933941 Z M 38.76045 10.553732 C 39.932325 10.152691 40.2917 9.178732 40.2917 7.71519 C 40.2917 5.741232 39.640658 4.668315 37.213574 4.668315 L 33.953158 4.668315 C 33.833366 4.668315 33.755241 4.74644 33.755241 4.866232 L 33.755241 13.803733 C 33.755241 13.918316 33.833366 14.001649 33.953158 14.001649 L 35.296908 14.001649 C 35.416699 14.001649 35.494824 13.918316 35.494824 13.803733 L 35.494824 10.767274 L 37.171908 10.767274 L 38.588575 13.845399 C 38.63545 13.954774 38.703158 14.001649 38.817741 14.001649 L 40.1042 14.001649 C 40.26045 14.001649 40.317741 13.907899 40.255241 13.767274 Z M 35.494824 6.21519 L 37.213574 6.21519 C 38.218783 6.21519 38.619825 6.387065 38.619825 7.71519 C 38.619825 9.048524 38.218783 9.220399 37.213574 9.220399 L 35.494824 9.220399 Z M 47.776075 12.454774 L 43.536491 12.454774 L 43.536491 10.001649 L 47.421908 10.001649 C 47.5417 10.001649 47.619825 9.923524 47.619825 9.803732 L 47.619825 8.647482 C 47.619825 8.527691 47.5417 8.449566 47.421908 8.449566 L 43.536491 8.449566 L 43.536491 6.21519 L 47.765658 6.21519 C 47.880242 6.21519 47.963575 6.131857 47.963575 6.012065 L 47.963575 4.866232 C 47.963575 4.74644 47.880242 4.668315 47.765658 4.668315 L 42.000033 4.668315 C 41.880241 4.668315 41.802116 4.74644 41.802116 4.866232 L 41.802116 13.803733 C 41.802116 13.918316 41.880241 14.001649 42.000033 14.001649 L 47.776075 14.001649 C 47.895867 14.001649 47.973992 13.918316 47.973992 13.803733 L 47.973992 12.652691 C 47.973992 12.532899 47.895867 12.454774 47.776075 12.454774 Z M 52.927117 12.527691 C 51.770867 12.527691 51.161492 12.126649 51.161492 9.762066 L 51.161492 8.975607 C 51.161492 6.611024 51.770867 6.21519 52.927117 6.21519 C 53.927117 6.21519 54.427117 6.418315 54.572951 7.423524 C 54.593784 7.538107 54.687534 7.595399 54.807326 7.595399 L 56.026076 7.595399 C 56.161492 7.595399 56.218784 7.512065 56.213576 7.381857 C 56.046909 5.288107 54.984409 4.538107 52.864617 4.538107 C 50.463575 4.538107 49.473992 5.574565 49.473992 8.959982 L 49.473992 9.777691 C 49.473992 13.152691 50.463575 14.199566 52.864617 14.199566 C 54.984409 14.199566 56.046909 13.444357 56.213576 11.355816 C 56.218784 11.220399 56.161492 11.137066 56.026076 11.137066 L 54.807326 11.137066 C 54.687534 11.137066 54.593784 11.194357 54.572951 11.314149 C 54.427117 12.314149 53.979201 12.527691 52.927117 12.527691 Z M 60.713576 4.538107 C 58.276076 4.538107 57.333367 5.569357 57.333367 8.959982 L 57.333367 9.762066 C 57.333367 13.168316 58.276076 14.199566 60.713576 14.199566 C 63.145868 14.199566 64.088576 13.168316 64.088576 9.762066 L 64.088576 8.959982 C 64.088576 5.569357 63.145868 4.538107 60.713576 4.538107 Z M 60.713576 6.209982 C 61.911493 6.209982 62.406284 6.517274 62.406284 8.975607 L 62.406284 9.762066 C 62.406284 12.220399 61.911493 12.527691 60.713576 12.527691 C 59.510451 12.527691 59.015659 12.220399 59.015659 9.762066 L 59.015659 8.975607 C 59.015659 6.517274 59.510451 6.209982 60.713576 6.209982 Z M 65.562535 14.001649 L 66.593785 14.001649 C 66.713576 14.001649 66.791701 13.918316 66.791701 13.803733 L 66.791701 8.204774 L 66.89066 8.204774 L 68.020868 13.840191 C 68.041701 13.949566 68.145868 14.001649 68.255243 14.001649 L 69.026077 14.001649 C 69.135452 14.001649 69.239618 13.949566 69.260452 13.840191 L 70.395868 8.204774 L 70.489618 8.204774 L 70.489618 13.803733 C 70.489618 13.918316 70.567743 14.001649 70.687535 14.001649 L 71.718785 14.001649 C 71.843785 14.001649 71.92191 13.918316 71.92191 13.803733 L 71.92191 4.866232 C 71.92191 4.74644 71.843785 4.668315 71.718785 4.668315 L 70.333368 4.668315 C 70.229202 4.668315 70.114618 4.709982 70.093785 4.803732 L 68.687535 12.069357 L 68.593785 12.069357 L 67.187535 4.803732 C 67.166701 4.709982 67.052118 4.668315 66.947951 4.668315 L 65.562535 4.668315 C 65.442743 4.668315 65.364618 4.74644 65.364618 4.866232 L 65.364618 13.803733 C 65.364618 13.918316 65.442743 14.001649 65.562535 14.001649 Z M 73.489618 14.001649 L 74.526077 14.001649 C 74.645869 14.001649 74.723994 13.918316 74.723994 13.803733 L 74.723994 8.204774 L 74.817744 8.204774 L 75.95316 13.840191 C 75.968785 13.949566 76.07816 14.001649 76.187535 14.001649 L 76.958369 14.001649 C 77.062535 14.001649 77.17191 13.949566 77.192744 13.840191 L 78.322952 8.204774 L 78.416702 8.204774 L 78.416702 13.803733 C 78.416702 13.918316 78.494827 14.001649 78.614619 14.001649 L 79.651077 14.001649 C 79.770869 14.001649 79.848994 13.918316 79.848994 13.803733 L 79.848994 4.866232 C 79.848994 4.74644 79.770869 4.668315 79.651077 4.668315 L 78.26566 4.668315 C 78.156285 4.668315 78.041702 4.709982 78.026077 4.803732 L 76.619827 12.069357 L 76.526077 12.069357 L 75.119827 4.803732 C 75.098994 4.709982 74.98441 4.668315 74.875035 4.668315 L 73.489618 4.668315 C 73.369827 4.668315 73.291702 4.74644 73.291702 4.866232 L 73.291702 13.803733 C 73.291702 13.918316 73.369827 14.001649 73.489618 14.001649 Z M 87.427119 12.454774 L 83.187536 12.454774 L 83.187536 10.001649 L 87.072953 10.001649 C 87.192744 10.001649 87.270869 9.923524 87.270869 9.803732 L 87.270869 8.647482 C 87.270869 8.527691 87.192744 8.449566 87.072953 8.449566 L 83.187536 8.449566 L 83.187536 6.21519 L 87.416703 6.21519 C 87.531286 6.21519 87.614619 6.131857 87.614619 6.012065 L 87.614619 4.866232 C 87.614619 4.74644 87.531286 4.668315 87.416703 4.668315 L 81.651077 4.668315 C 81.526077 4.668315 81.447952 4.74644 81.447952 4.866232 L 81.447952 13.803733 C 81.447952 13.918316 81.526077 14.001649 81.651077 14.001649 L 87.427119 14.001649 C 87.546911 14.001649 87.625036 13.918316 87.625036 13.803733 L 87.625036 12.652691 C 87.625036 12.532899 87.546911 12.454774 87.427119 12.454774 Z M 95.473995 4.668315 L 94.312536 4.668315 C 94.187536 4.668315 94.11462 4.74644 94.11462 4.866232 L 94.11462 11.220399 L 91.14587 4.803732 C 91.104203 4.709982 91.010453 4.668315 90.906286 4.668315 L 89.385453 4.668315 C 89.265661 4.668315 89.182328 4.74644 89.182328 4.866232 L 89.182328 13.803733 C 89.182328 13.918316 89.265661 14.001649 89.385453 14.001649 L 90.55212 14.001649 C 90.671911 14.001649 90.750036 13.918316 90.750036 13.803733 L 90.750036 7.449565 L 93.718786 13.866233 C 93.755245 13.959983 93.854203 14.001649 93.95837 14.001649 L 95.473995 14.001649 C 95.593787 14.001649 95.67712 13.918316 95.67712 13.803733 L 95.67712 4.866232 C 95.67712 4.74644 95.593787 4.668315 95.473995 4.668315 Z M 100.05212 4.668315 L 97.317745 4.668315 C 97.197953 4.668315 97.11462 4.74644 97.11462 4.866232 L 97.11462 13.803733 C 97.11462 13.918316 97.197953 14.001649 97.317745 14.001649 L 100.05212 14.001649 C 103.041704 14.001649 103.869829 12.095399 103.869829 9.334982 C 103.869829 6.574565 103.041704 4.668315 100.05212 4.668315 Z M 100.05212 12.454774 L 98.854203 12.454774 L 98.854203 6.21519 L 100.05212 6.21519 C 101.796912 6.21519 102.093787 7.350607 102.093787 9.334982 C 102.093787 11.319357 101.796912 12.454774 100.05212 12.454774 Z M 111.218788 12.454774 L 106.979204 12.454774 L 106.979204 10.001649 L 110.864621 10.001649 C 110.984413 10.001649 111.062538 9.923524 111.062538 9.803732 L 111.062538 8.647482 C 111.062538 8.527691 110.984413 8.449566 110.864621 8.449566 L 106.979204 8.449566 L 106.979204 6.21519 L 111.203163 6.21519 C 111.322954 6.21519 111.406288 6.131857 111.406288 6.012065 L 111.406288 4.866232 C 111.406288 4.74644 111.322954 4.668315 111.203163 4.668315 L 105.437537 4.668315 C 105.317746 4.668315 105.239621 4.74644 105.239621 4.866232 L 105.239621 13.803733 C 105.239621 13.918316 105.317746 14.001649 105.437537 14.001649 L 111.218788 14.001649 C 111.333371 14.001649 111.416704 13.918316 111.416704 13.803733 L 111.416704 12.652691 C 111.416704 12.532899 111.333371 12.454774 111.218788 12.454774 Z M 115.911496 4.668315 L 113.177121 4.668315 C 113.057329 4.668315 112.973996 4.74644 112.973996 4.866232 L 112.973996 13.803733 C 112.973996 13.918316 113.057329 14.001649 113.177121 14.001649 L 115.911496 14.001649 C 118.90108 14.001649 119.729205 12.095399 119.729205 9.334982 C 119.729205 6.574565 118.90108 4.668315 115.911496 4.668315 Z M 115.911496 12.454774 L 114.718788 12.454774 L 114.718788 6.21519 L 115.911496 6.21519 C 117.656288 6.21519 117.953163 7.350607 117.953163 9.334982 C 117.953163 11.319357 117.656288 12.454774 115.911496 12.454774 Z M 135.375039 9.053732 L 131.984414 9.053732 C 131.859414 9.053732 131.781289 9.137066 131.781289 9.256857 L 131.781289 10.334982 C 131.781289 10.454774 131.859414 10.532899 131.984414 10.532899 L 133.927122 10.532899 C 133.911497 12.111024 133.421914 12.527691 132.187539 12.527691 C 131.057331 12.527691 130.447956 12.126649 130.447956 9.762066 L 130.447956 8.975607 C 130.447956 6.611024 131.057331 6.21519 132.208372 6.21519 C 133.213581 6.21519 133.708372 6.418315 133.859414 7.423524 C 133.880247 7.538107 133.973997 7.595399 134.093789 7.595399 L 135.312539 7.595399 C 135.447956 7.595399 135.505248 7.512065 135.500039 7.381857 C 135.333373 5.288107 134.265664 4.538107 132.156289 4.538107 C 129.750039 4.538107 128.765664 5.574565 128.765664 8.959982 L 128.765664 9.777691 C 128.765664 13.152691 129.750039 14.199566 132.187539 14.199566 C 134.588581 14.183941 135.572956 13.116232 135.572956 10.418316 L 135.572956 9.256857 C 135.572956 9.137066 135.494831 9.053732 135.375039 9.053732 Z M 143.057331 4.668315 L 141.71879 4.668315 C 141.598998 4.668315 141.515665 4.74644 141.515665 4.866232 L 141.515665 10.558941 C 141.515665 11.887066 141.072956 12.532899 140.015664 12.532899 C 138.963581 12.532899 138.505248 11.887066 138.505248 10.558941 L 138.505248 4.866232 C 138.505248 4.74644 138.427123 4.668315 138.307331 4.668315 L 136.968789 4.668315 C 136.848998 4.668315 136.765664 4.74644 136.765664 4.866232 L 136.765664 10.579774 C 136.765664 13.131857 137.864623 14.199566 140.015664 14.199566 C 142.171915 14.199566 143.260456 13.131857 143.260456 10.579774 L 143.260456 4.866232 C 143.260456 4.74644 143.177123 4.668315 143.057331 4.668315 Z M 150.942749 6.21519 C 151.06254 6.21519 151.140665 6.131857 151.140665 6.012065 L 151.140665 4.866232 C 151.140665 4.74644 151.06254 4.668315 150.942749 4.668315 L 144.942748 4.668315 C 144.822956 4.668315 144.739623 4.74644 144.739623 4.866232 L 144.739623 6.012065 C 144.739623 6.131857 144.822956 6.21519 144.942748 6.21519 L 147.067748 6.21519 L 147.067748 12.454774 L 144.942748 12.454774 C 144.822956 12.454774 144.739623 12.532899 144.739623 12.652691 L 144.739623 13.803733 C 144.739623 13.918316 144.822956 14.001649 144.942748 14.001649 L 150.942749 14.001649 C 151.06254 14.001649 151.140665 13.918316 151.140665 13.803733 L 151.140665 12.652691 C 151.140665 12.532899 151.06254 12.454774 150.942749 12.454774 L 148.817748 12.454774 L 148.817748 6.21519 Z M 155.562541 4.668315 L 152.828165 4.668315 C 152.708374 4.668315 152.62504 4.74644 152.62504 4.866232 L 152.62504 13.803733 C 152.62504 13.918316 152.708374 14.001649 152.828165 14.001649 L 155.562541 14.001649 C 158.552124 14.001649 159.380249 12.095399 159.380249 9.334982 C 159.380249 6.574565 158.552124 4.668315 155.562541 4.668315 Z M 155.562541 12.454774 L 154.364624 12.454774 L 154.364624 6.21519 L 155.562541 6.21519 C 157.307332 6.21519 157.604207 7.350607 157.604207 9.334982 C 157.604207 11.319357 157.307332 12.454774 155.562541 12.454774 Z M 167.479208 13.772483 L 165.114624 4.829774 C 165.083374 4.720399 164.989624 4.668315 164.880249 4.668315 L 162.723999 4.668315 C 162.614624 4.668315 162.520874 4.720399 162.489624 4.829774 L 160.130249 13.772483 C 160.088582 13.907899 160.140666 14.001649 160.286499 14.001649 L 161.640666 14.001649 C 161.750041 14.001649 161.843791 13.959983 161.869833 13.840191 L 162.239624 12.319357 L 165.364624 12.319357 L 165.734416 13.840191 C 165.760458 13.959983 165.854208 14.001649 165.963583 14.001649 L 167.322958 14.001649 C 167.468791 14.001649 167.515666 13.907899 167.479208 13.772483 Z M 162.609416 10.824566 L 163.682333 6.470399 L 163.921916 6.470399 L 164.994833 10.824566 Z M 174.776083 4.668315 L 173.609417 4.668315 C 173.489625 4.668315 173.4115 4.74644 173.4115 4.866232 L 173.4115 11.220399 L 170.44275 4.803732 C 170.406291 4.709982 170.312541 4.668315 170.208375 4.668315 L 168.687541 4.668315 C 168.56775 4.668315 168.484416 4.74644 168.484416 4.866232 L 168.484416 13.803733 C 168.484416 13.918316 168.56775 14.001649 168.687541 14.001649 L 169.854208 14.001649 C 169.974 14.001649 170.052125 13.918316 170.052125 13.803733 L 170.052125 7.449565 L 173.020875 13.866233 C 173.057333 13.959983 173.151083 14.001649 173.260458 14.001649 L 174.776083 14.001649 C 174.895875 14.001649 174.979208 13.918316 174.979208 13.803733 L 174.979208 4.866232 C 174.979208 4.74644 174.895875 4.668315 174.776083 4.668315 Z M 179.812542 12.527691 C 178.656292 12.527691 178.041709 12.126649 178.041709 9.762066 L 178.041709 8.975607 C 178.041709 6.611024 178.656292 6.21519 179.812542 6.21519 C 180.807334 6.21519 181.307334 6.418315 181.453167 7.423524 C 181.474001 7.538107 181.567751 7.595399 181.687542 7.595399 L 182.906292 7.595399 C 183.041709 7.595399 183.099001 7.512065 183.093792 7.381857 C 182.927126 5.288107 181.864626 4.538107 179.750042 4.538107 C 177.343792 4.538107 176.359417 5.574565 176.359417 8.959982 L 176.359417 9.777691 C 176.359417 13.152691 177.343792 14.199566 179.750042 14.199566 C 181.864626 14.199566 182.927126 13.444357 183.093792 11.355816 C 183.099001 11.220399 183.041709 11.137066 182.906292 11.137066 L 181.687542 11.137066 C 181.567751 11.137066 181.474001 11.194357 181.453167 11.314149 C 181.307334 12.314149 180.859417 12.527691 179.812542 12.527691 Z M 190.520876 12.454774 L 186.281293 12.454774 L 186.281293 10.001649 L 190.166709 10.001649 C 190.286501 10.001649 190.364626 9.923524 190.364626 9.803732 L 190.364626 8.647482 C 190.364626 8.527691 190.286501 8.449566 190.166709 8.449566 L 186.281293 8.449566 L 186.281293 6.21519 L 190.505251 6.21519 C 190.625043 6.21519 190.703168 6.131857 190.703168 6.012065 L 190.703168 4.866232 C 190.703168 4.74644 190.625043 4.668315 190.505251 4.668315 L 184.739626 4.668315 C 184.619834 4.668315 184.541709 4.74644 184.541709 4.866232 L 184.541709 13.803733 C 184.541709 13.918316 184.619834 14.001649 184.739626 14.001649 L 190.520876 14.001649 C 190.635459 14.001649 190.718793 13.918316 190.718793 13.803733 L 190.718793 12.652691 C 190.718793 12.532899 190.635459 12.454774 190.520876 12.454774 Z M 206.453169 4.668315 L 200.588585 4.668315 C 200.468793 4.668315 200.38546 4.74644 200.38546 4.866232 L 200.38546 13.803733 C 200.38546 13.918316 200.468793 14.001649 200.588585 14.001649 L 201.927127 14.001649 C 202.046919 14.001649 202.125044 13.918316 202.125044 13.803733 L 202.125044 10.090191 L 206.145877 10.090191 C 206.265669 10.090191 206.343794 10.006857 206.343794 9.887066 L 206.343794 8.736024 C 206.343794 8.616232 206.265669 8.538107 206.145877 8.538107 L 202.125044 8.538107 L 202.125044 6.21519 L 206.453169 6.21519 C 206.572961 6.21519 206.651086 6.131857 206.651086 6.012065 L 206.651086 4.866232 C 206.651086 4.74644 206.572961 4.668315 206.453169 4.668315 Z M 211.385461 4.538107 C 208.947961 4.538107 208.005252 5.569357 208.005252 8.959982 L 208.005252 9.762066 C 208.005252 13.168316 208.947961 14.199566 211.385461 14.199566 C 213.817753 14.199566 214.760461 13.168316 214.760461 9.762066 L 214.760461 8.959982 C 214.760461 5.569357 213.817753 4.538107 211.385461 4.538107 Z M 211.385461 6.209982 C 212.583378 6.209982 213.078169 6.517274 213.078169 8.975607 L 213.078169 9.762066 C 213.078169 12.220399 212.583378 12.527691 211.385461 12.527691 C 210.182336 12.527691 209.687544 12.220399 209.687544 9.762066 L 209.687544 8.975607 C 209.687544 6.517274 210.182336 6.209982 211.385461 6.209982 Z M 221.151086 10.553732 C 222.322962 10.152691 222.687545 9.178732 222.687545 7.71519 C 222.687545 5.741232 222.031295 4.668315 219.60942 4.668315 L 216.343795 4.668315 C 216.224003 4.668315 216.145878 4.74644 216.145878 4.866232 L 216.145878 13.803733 C 216.145878 13.918316 216.224003 14.001649 216.343795 14.001649 L 217.687545 14.001649 C 217.807336 14.001649 217.885461 13.918316 217.885461 13.803733 L 217.885461 10.767274 L 219.562545 10.767274 L 220.979211 13.845399 C 221.026086 13.954774 221.099003 14.001649 221.213586 14.001649 L 222.494837 14.001649 C 222.651087 14.001649 222.713587 13.907899 222.645878 13.767274 Z M 217.885461 6.21519 L 219.60942 6.21519 C 220.614628 6.21519 221.01567 6.387065 221.01567 7.71519 C 221.01567 9.048524 220.614628 9.220399 219.60942 9.220399 L 217.885461 9.220399 Z M 235.177129 4.538107 C 232.739629 4.538107 231.791712 5.569357 231.791712 8.959982 L 231.791712 9.762066 C 231.791712 13.168316 232.739629 14.199566 235.177129 14.199566 C 237.604213 14.199566 238.552129 13.168316 238.552129 9.762066 L 238.552129 8.959982 C 238.552129 5.569357 237.604213 4.538107 235.177129 4.538107 Z M 235.177129 6.209982 C 236.369837 6.209982 236.864629 6.517274 236.864629 8.975607 L 236.864629 9.762066 C 236.864629 12.220399 236.369837 12.527691 235.177129 12.527691 C 233.974004 12.527691 233.479212 12.220399 233.479212 9.762066 L 233.479212 8.975607 C 233.479212 6.517274 233.974004 6.209982 235.177129 6.209982 Z M 244.656296 8.996441 C 245.604213 8.720399 246.000046 7.991232 246.000046 7.022482 C 246.000046 5.767274 245.307338 4.668315 243.307338 4.668315 L 239.989629 4.668315 C 239.869838 4.668315 239.791713 4.74644 239.791713 4.866232 L 239.791713 13.803733 C 239.791713 13.918316 239.869838 14.001649 239.989629 14.001649 L 243.187546 14.001649 C 245.567755 14.001649 246.484421 13.142274 246.484421 11.329774 C 246.484421 10.105816 245.911505 9.256857 244.656296 8.996441 Z M 244.369838 7.220399 C 244.369838 7.99644 244.046921 8.366232 243.151088 8.366232 L 241.531296 8.366232 L 241.531296 6.21519 L 243.151088 6.21519 C 244.036505 6.21519 244.369838 6.49644 244.369838 7.220399 Z M 243.229213 12.454774 L 241.531296 12.454774 L 241.531296 9.819357 L 243.229213 9.819357 C 244.322963 9.819357 244.734421 10.277691 244.734421 11.168316 C 244.734421 12.074566 244.307338 12.454774 243.229213 12.454774 Z M 253.95838 12.454774 L 249.718797 12.454774 L 249.718797 10.001649 L 253.604214 10.001649 C 253.724005 10.001649 253.80213 9.923524 253.80213 9.803732 L 253.80213 8.647482 C 253.80213 8.527691 253.724005 8.449566 253.604214 8.449566 L 249.718797 8.449566 L 249.718797 6.21519 L 253.947964 6.21519 C 254.062547 6.21519 254.14588 6.131857 254.14588 6.012065 L 254.14588 4.866232 C 254.14588 4.74644 254.062547 4.668315 253.947964 4.668315 L 248.182338 4.668315 C 248.062547 4.668315 247.984422 4.74644 247.984422 4.866232 L 247.984422 13.803733 C 247.984422 13.918316 248.062547 14.001649 248.182338 14.001649 L 253.95838 14.001649 C 254.078172 14.001649 254.161505 13.918316 254.161505 13.803733 L 254.161505 12.652691 C 254.161505 12.532899 254.078172 12.454774 253.95838 12.454774 Z M 258.885464 8.501649 C 257.635464 8.256857 257.375047 7.824565 257.375047 7.189149 C 257.375047 6.506857 257.932339 6.09019 258.885464 6.09019 C 259.921922 6.09019 260.489631 6.470399 260.604214 6.986024 C 260.630256 7.095399 260.682339 7.168315 260.802131 7.168315 L 261.953173 7.168315 C 262.078173 7.168315 262.156298 7.079774 262.140673 6.949565 C 261.974006 5.282899 260.802131 4.538107 258.864631 4.538107 C 256.724005 4.538107 255.692755 5.569357 255.692755 7.189149 C 255.692755 9.032899 257.208381 9.673524 258.885464 10.027691 C 260.239631 10.314149 260.713589 10.616232 260.713589 11.486024 C 260.713589 12.277691 260.057339 12.626649 258.927131 12.626649 C 257.885464 12.626649 257.296922 12.293316 257.151089 11.699566 C 257.125047 11.595399 257.072964 11.506857 256.947964 11.506857 L 255.703172 11.506857 C 255.58338 11.506857 255.505255 11.605816 255.52088 11.741232 C 255.671922 13.454774 256.812547 14.199566 258.927131 14.199566 C 261.281297 14.199566 262.421923 13.256857 262.421923 11.444357 C 262.421923 9.428732 260.661506 8.850607 258.885464 8.501649 Z M 269.890673 6.21519 C 270.010465 6.21519 270.093798 6.131857 270.093798 6.012065 L 270.093798 4.866232 C 270.093798 4.74644 270.010465 4.668315 269.890673 4.668315 L 263.895881 4.668315 C 263.776089 4.668315 263.692756 4.74644 263.692756 4.866232 L 263.692756 6.012065 C 263.692756 6.131857 263.776089 6.21519 263.895881 6.21519 L 266.020881 6.21519 L 266.020881 12.454774 L 263.895881 12.454774 C 263.776089 12.454774 263.692756 12.532899 263.692756 12.652691 L 263.692756 13.803733 C 263.692756 13.918316 263.776089 14.001649 263.895881 14.001649 L 269.890673 14.001649 C 270.010465 14.001649 270.093798 13.918316 270.093798 13.803733 L 270.093798 12.652691 C 270.093798 12.532899 270.010465 12.454774 269.890673 12.454774 L 267.765673 12.454774 L 267.765673 6.21519 Z M 278.05734 4.668315 L 271.58859 4.668315 C 271.468798 4.668315 271.390673 4.74644 271.390673 4.866232 L 271.390673 6.012065 C 271.390673 6.131857 271.468798 6.21519 271.58859 6.21519 L 273.947965 6.21519 L 273.947965 13.803733 C 273.947965 13.918316 274.031298 14.001649 274.15109 14.001649 L 275.49484 14.001649 C 275.614632 14.001649 275.697965 13.918316 275.697965 13.803733 L 275.697965 6.21519 L 278.05734 6.21519 C 278.177132 6.21519 278.255257 6.131857 278.255257 6.012065 L 278.255257 4.866232 C 278.255257 4.74644 278.177132 4.668315 278.05734 4.668315 Z M 286.291716 4.668315 L 284.880257 4.668315 C 284.770882 4.668315 284.677132 4.709982 284.640674 4.803732 L 282.755257 8.631857 L 280.86984 4.803732 C 280.828174 4.709982 280.734424 4.668315 280.625049 4.668315 L 279.21359 4.668315 C 279.05734 4.668315 279.000049 4.762065 279.083382 4.907899 L 281.880257 10.251649 L 281.880257 13.803733 C 281.880257 13.918316 281.96359 14.001649 282.083382 14.001649 L 283.427132 14.001649 C 283.546924 14.001649 283.625049 13.918316 283.625049 13.803733 L 283.625049 10.277691 L 286.427132 4.907899 C 286.505257 4.762065 286.453174 4.668315 286.291716 4.668315 Z M 295.5313 14.001649 L 296.567758 14.001649 C 296.68755 14.001649 296.765675 13.918316 296.765675 13.803733 L 296.765675 8.204774 L 296.859425 8.204774 L 297.994842 13.840191 C 298.015675 13.949566 298.119842 14.001649 298.229217 14.001649 L 299.00005 14.001649 C 299.104217 14.001649 299.213592 13.949566 299.234425 13.840191 L 300.364633 8.204774 L 300.458383 8.204774 L 300.458383 13.803733 C 300.458383 13.918316 300.536508 14.001649 300.661508 14.001649 L 301.692758 14.001649 C 301.81255 14.001649 301.890675 13.918316 301.890675 13.803733 L 301.890675 4.866232 C 301.890675 4.74644 301.81255 4.668315 301.692758 4.668315 L 300.307342 4.668315 C 300.197967 4.668315 300.088592 4.709982 300.067758 4.803732 L 298.661508 12.069357 L 298.567758 12.069357 L 297.161508 4.803732 C 297.140675 4.709982 297.026091 4.668315 296.921925 4.668315 L 295.5313 4.668315 C 295.411508 4.668315 295.333383 4.74644 295.333383 4.866232 L 295.333383 13.803733 C 295.333383 13.918316 295.411508 14.001649 295.5313 14.001649 Z M 310.224009 13.772483 L 307.859426 4.829774 C 307.822967 4.720399 307.729217 4.668315 307.625051 4.668315 L 305.463592 4.668315 C 305.359425 4.668315 305.265675 4.720399 305.229217 4.829774 L 302.869842 13.772483 C 302.833384 13.907899 302.885467 14.001649 303.0313 14.001649 L 304.385467 14.001649 C 304.489634 14.001649 304.583384 13.959983 304.614634 13.840191 L 304.984425 12.319357 L 308.104217 12.319357 L 308.474009 13.840191 C 308.505259 13.959983 308.593801 14.001649 308.703176 14.001649 L 310.062551 14.001649 C 310.208384 14.001649 310.255259 13.907899 310.224009 13.772483 Z M 305.349009 10.824566 L 306.427134 6.470399 L 306.661509 6.470399 L 307.734426 10.824566 Z M 317.520884 4.668315 L 316.354218 4.668315 C 316.234426 4.668315 316.156301 4.74644 316.156301 4.866232 L 316.156301 11.220399 L 313.187551 4.803732 C 313.145884 4.709982 313.052134 4.668315 312.947968 4.668315 L 311.427134 4.668315 C 311.307342 4.668315 311.229217 4.74644 311.229217 4.866232 L 311.229217 13.803733 C 311.229217 13.918316 311.307342 14.001649 311.427134 14.001649 L 312.593801 14.001649 C 312.713593 14.001649 312.791718 13.918316 312.791718 13.803733 L 312.791718 7.449565 L 315.760468 13.866233 C 315.802134 13.959983 315.895884 14.001649 316.000051 14.001649 L 317.520884 14.001649 C 317.640676 14.001649 317.718801 13.918316 317.718801 13.803733 L 317.718801 4.866232 C 317.718801 4.74644 317.640676 4.668315 317.520884 4.668315 Z M 326.083385 13.772483 L 323.718802 4.829774 C 323.682343 4.720399 323.588593 4.668315 323.484427 4.668315 L 321.322968 4.668315 C 321.218801 4.668315 321.125051 4.720399 321.088593 4.829774 L 318.729218 13.772483 C 318.69276 13.907899 318.744843 14.001649 318.890676 14.001649 L 320.244843 14.001649 C 320.354218 14.001649 320.44276 13.959983 320.47401 13.840191 L 320.843801 12.319357 L 323.963593 12.319357 L 324.333385 13.840191 C 324.364635 13.959983 324.458385 14.001649 324.562552 14.001649 L 325.921927 14.001649 C 326.06776 14.001649 326.114635 13.907899 326.083385 13.772483 Z M 321.213593 10.824566 L 322.28651 6.470399 L 322.520885 6.470399 L 323.59901 10.824566 Z M 333.625052 9.053732 L 330.234427 9.053732 C 330.114635 9.053732 330.031302 9.137066 330.031302 9.256857 L 330.031302 10.334982 C 330.031302 10.454774 330.114635 10.532899 330.234427 10.532899 L 332.182344 10.532899 C 332.16151 12.111024 331.671927 12.527691 330.437552 12.527691 C 329.307344 12.527691 328.703177 12.126649 328.703177 9.762066 L 328.703177 8.975607 C 328.703177 6.611024 329.307344 6.21519 330.458385 6.21519 C 331.468802 6.21519 331.958385 6.418315 332.114635 7.423524 C 332.13026 7.538107 332.22401 7.595399 332.34901 7.595399 L 333.567761 7.595399 C 333.703177 7.595399 333.760469 7.512065 333.755261 7.381857 C 333.588594 5.288107 332.520885 4.538107 330.406302 4.538107 C 328.000052 4.538107 327.015677 5.574565 327.015677 8.959982 L 327.015677 9.777691 C 327.015677 13.152691 328.000052 14.199566 330.437552 14.199566 C 332.843802 14.183941 333.828177 13.116232 333.828177 10.418316 L 333.828177 9.256857 C 333.828177 9.137066 333.744844 9.053732 333.625052 9.053732 Z M 341.192761 12.454774 L 336.953177 12.454774 L 336.953177 10.001649 L 340.838594 10.001649 C 340.958386 10.001649 341.036511 9.923524 341.036511 9.803732 L 341.036511 8.647482 C 341.036511 8.527691 340.958386 8.449566 340.838594 8.449566 L 336.953177 8.449566 L 336.953177 6.21519 L 341.177136 6.21519 C 341.296928 6.21519 341.375053 6.131857 341.375053 6.012065 L 341.375053 4.866232 C 341.375053 4.74644 341.296928 4.668315 341.177136 4.668315 L 335.411511 4.668315 C 335.291719 4.668315 335.213594 4.74644 335.213594 4.866232 L 335.213594 13.803733 C 335.213594 13.918316 335.291719 14.001649 335.411511 14.001649 L 341.192761 14.001649 C 341.307344 14.001649 341.390678 13.918316 341.390678 13.803733 L 341.390678 12.652691 C 341.390678 12.532899 341.307344 12.454774 341.192761 12.454774 Z M 343.114636 14.001649 L 344.151095 14.001649 C 344.270886 14.001649 344.349011 13.918316 344.349011 13.803733 L 344.349011 8.204774 L 344.442761 8.204774 L 345.57297 13.840191 C 345.593803 13.949566 345.703178 14.001649 345.807345 14.001649 L 346.578178 14.001649 C 346.687553 14.001649 346.796928 13.949566 346.812553 13.840191 L 347.94797 8.204774 L 348.04172 8.204774 L 348.04172 13.803733 C 348.04172 13.918316 348.119845 14.001649 348.239637 14.001649 L 349.276095 14.001649 C 349.395887 14.001649 349.474012 13.918316 349.474012 13.803733 L 349.474012 4.866232 C 349.474012 4.74644 349.395887 4.668315 349.276095 4.668315 L 347.88547 4.668315 C 347.781303 4.668315 347.66672 4.709982 347.645886 4.803732 L 346.239636 12.069357 L 346.145886 12.069357 L 344.739636 4.803732 C 344.724011 4.709982 344.609428 4.668315 344.500053 4.668315 L 343.114636 4.668315 C 342.994844 4.668315 342.916719 4.74644 342.916719 4.866232 L 342.916719 13.803733 C 342.916719 13.918316 342.994844 14.001649 343.114636 14.001649 Z M 357.052137 12.454774 L 352.812553 12.454774 L 352.812553 10.001649 L 356.69797 10.001649 C 356.817762 10.001649 356.895887 9.923524 356.895887 9.803732 L 356.895887 8.647482 C 356.895887 8.527691 356.817762 8.449566 356.69797 8.449566 L 352.812553 8.449566 L 352.812553 6.21519 L 357.036512 6.21519 C 357.156304 6.21519 357.239637 6.131857 357.239637 6.012065 L 357.239637 4.866232 C 357.239637 4.74644 357.156304 4.668315 357.036512 4.668315 L 351.270887 4.668315 C 351.151095 4.668315 351.07297 4.74644 351.07297 4.866232 L 351.07297 13.803733 C 351.07297 13.918316 351.151095 14.001649 351.270887 14.001649 L 357.052137 14.001649 C 357.16672 14.001649 357.250054 13.918316 357.250054 13.803733 L 357.250054 12.652691 C 357.250054 12.532899 357.16672 12.454774 357.052137 12.454774 Z M 365.099013 4.668315 L 363.932346 4.668315 C 363.812554 4.668315 363.734429 4.74644 363.734429 4.866232 L 363.734429 11.220399 L 360.765679 4.803732 C 360.729221 4.709982 360.635471 4.668315 360.531304 4.668315 L 359.010471 4.668315 C 358.890679 4.668315 358.807346 4.74644 358.807346 4.866232 L 358.807346 13.803733 C 358.807346 13.918316 358.890679 14.001649 359.010471 14.001649 L 360.177137 14.001649 C 360.296929 14.001649 360.375054 13.918316 360.375054 13.803733 L 360.375054 7.449565 L 363.343804 13.866233 C 363.380262 13.959983 363.474013 14.001649 363.583388 14.001649 L 365.099013 14.001649 C 365.218804 14.001649 365.302138 13.918316 365.302138 13.803733 L 365.302138 4.866232 C 365.302138 4.74644 365.218804 4.668315 365.099013 4.668315 Z M 373.218805 4.668315 L 366.750054 4.668315 C 366.630263 4.668315 366.552138 4.74644 366.552138 4.866232 L 366.552138 6.012065 C 366.552138 6.131857 366.630263 6.21519 366.750054 6.21519 L 369.10943 6.21519 L 369.10943 13.803733 C 369.10943 13.918316 369.192763 14.001649 369.312555 14.001649 L 370.656305 14.001649 C 370.776096 14.001649 370.85943 13.918316 370.85943 13.803733 L 370.85943 6.21519 L 373.218805 6.21519 C 373.338596 6.21519 373.416721 6.131857 373.416721 6.012065 L 373.416721 4.866232 C 373.416721 4.74644 373.338596 4.668315 373.218805 4.668315 Z M 373.218805 4.668315 " stroke="#1c2541" stroke-width="1.833329" stroke-opacity="1" stroke-miterlimit="4"/><g fill="#f6f7ff" fill-opacity="1"><g transform="translate(50.597633, 257.373763)"><g><path d="M 5.832031 -0.171875 L 4.058594 -6.878906 C 4.035156 -6.957031 3.964844 -7 3.882812 -7 L 2.265625 -7 C 2.183594 -7 2.113281 -6.957031 2.089844 -6.878906 L 0.320312 -0.171875 C 0.289062 -0.0703125 0.328125 0 0.441406 0 L 1.453125 0 C 1.535156 0 1.605469 -0.03125 1.625 -0.121094 L 1.90625 -1.257812 L 4.242188 -1.257812 L 4.523438 -0.121094 C 4.542969 -0.03125 4.613281 0 4.695312 0 L 5.714844 0 C 5.824219 0 5.859375 -0.0703125 5.832031 -0.171875 Z M 2.179688 -2.378906 L 2.984375 -5.648438 L 3.164062 -5.648438 L 3.96875 -2.378906 Z M 2.179688 -2.378906 "/></g></g></g><g fill="#f6f7ff" fill-opacity="1"><g transform="translate(56.545205, 257.373763)"><g><path d="M 5.324219 -5.839844 C 5.414062 -5.839844 5.472656 -5.898438 5.472656 -5.988281 L 5.472656 -6.847656 C 5.472656 -6.9375 5.414062 -7 5.324219 -7 L 0.824219 -7 C 0.734375 -7 0.675781 -6.9375 0.675781 -6.847656 L 0.675781 -5.988281 C 0.675781 -5.898438 0.734375 -5.839844 0.824219 -5.839844 L 2.417969 -5.839844 L 2.417969 -1.160156 L 0.824219 -1.160156 C 0.734375 -1.160156 0.675781 -1.101562 0.675781 -1.007812 L 0.675781 -0.148438 C 0.675781 -0.0585938 0.734375 0 0.824219 0 L 5.324219 0 C 5.414062 0 5.472656 -0.0585938 5.472656 -0.148438 L 5.472656 -1.007812 C 5.472656 -1.101562 5.414062 -1.160156 5.324219 -1.160156 L 3.730469 -1.160156 L 3.730469 -5.839844 Z M 5.324219 -5.839844 "/></g></g></g><g fill="#f6f7ff" fill-opacity="1"><g transform="translate(62.492776, 257.373763)"><g><path d="M 5.421875 -3.800781 L 0.726562 -3.800781 C 0.636719 -3.800781 0.574219 -3.738281 0.574219 -3.648438 L 0.574219 -2.914062 C 0.574219 -2.824219 0.636719 -2.765625 0.726562 -2.765625 L 5.421875 -2.765625 C 5.511719 -2.765625 5.574219 -2.824219 5.574219 -2.914062 L 5.574219 -3.648438 C 5.574219 -3.738281 5.511719 -3.800781 5.421875 -3.800781 Z M 5.421875 -3.800781 "/></g></g></g><g fill="#f6f7ff" fill-opacity="1"><g transform="translate(68.440349, 257.373763)"><g><path d="M 4.453125 -2.585938 C 5.332031 -2.882812 5.605469 -3.613281 5.605469 -4.714844 C 5.605469 -6.195312 5.113281 -7 3.292969 -7 L 0.851562 -7 C 0.761719 -7 0.699219 -6.9375 0.699219 -6.847656 L 0.699219 -0.148438 C 0.699219 -0.0585938 0.761719 0 0.851562 0 L 1.855469 0 C 1.945312 0 2.003906 -0.0585938 2.003906 -0.148438 L 2.003906 -2.425781 L 3.265625 -2.425781 L 4.324219 -0.113281 C 4.359375 -0.0351562 4.414062 0 4.5 0 L 5.464844 0 C 5.578125 0 5.625 -0.0703125 5.574219 -0.175781 Z M 2.003906 -5.839844 L 3.292969 -5.839844 C 4.050781 -5.839844 4.347656 -5.707031 4.347656 -4.714844 C 4.347656 -3.714844 4.050781 -3.585938 3.292969 -3.585938 L 2.003906 -3.585938 Z M 2.003906 -5.839844 "/></g></g></g><g fill="#f6f7ff" fill-opacity="1"><g transform="translate(74.38792, 257.373763)"><g><path d="M 5.269531 -1.160156 L 2.089844 -1.160156 L 2.089844 -3 L 5.003906 -3 C 5.09375 -3 5.152344 -3.058594 5.152344 -3.148438 L 5.152344 -4.015625 C 5.152344 -4.105469 5.09375 -4.164062 5.003906 -4.164062 L 2.089844 -4.164062 L 2.089844 -5.839844 L 5.257812 -5.839844 C 5.347656 -5.839844 5.410156 -5.898438 5.410156 -5.988281 L 5.410156 -6.847656 C 5.410156 -6.9375 5.347656 -7 5.257812 -7 L 0.933594 -7 C 0.84375 -7 0.785156 -6.9375 0.785156 -6.847656 L 0.785156 -0.148438 C 0.785156 -0.0585938 0.84375 0 0.933594 0 L 5.269531 0 C 5.359375 0 5.417969 -0.0585938 5.417969 -0.148438 L 5.417969 -1.007812 C 5.417969 -1.101562 5.359375 -1.160156 5.269531 -1.160156 Z M 5.269531 -1.160156 "/></g></g></g><g fill="#f6f7ff" fill-opacity="1"><g transform="translate(80.335493, 257.373763)"><g><path d="M 3.183594 -1.105469 C 2.320312 -1.105469 1.859375 -1.40625 1.859375 -3.179688 L 1.859375 -3.769531 C 1.859375 -5.542969 2.320312 -5.839844 3.183594 -5.839844 C 3.933594 -5.839844 4.308594 -5.683594 4.417969 -4.933594 C 4.433594 -4.84375 4.503906 -4.804688 4.59375 -4.804688 L 5.507812 -4.804688 C 5.609375 -4.804688 5.652344 -4.863281 5.648438 -4.964844 C 5.523438 -6.535156 4.730469 -7.097656 3.140625 -7.097656 C 1.335938 -7.097656 0.59375 -6.320312 0.59375 -3.777344 L 0.59375 -3.167969 C 0.59375 -0.636719 1.335938 0.148438 3.140625 0.148438 C 4.730469 0.148438 5.523438 -0.414062 5.648438 -1.984375 C 5.652344 -2.085938 5.609375 -2.144531 5.507812 -2.144531 L 4.59375 -2.144531 C 4.503906 -2.144531 4.433594 -2.105469 4.417969 -2.015625 C 4.308594 -1.265625 3.972656 -1.105469 3.183594 -1.105469 Z M 3.183594 -1.105469 "/></g></g></g><g fill="#f6f7ff" fill-opacity="1"><g transform="translate(86.283064, 257.373763)"><g><path d="M 3.074219 -7.097656 C 1.25 -7.097656 0.539062 -6.324219 0.539062 -3.777344 L 0.539062 -3.179688 C 0.539062 -0.625 1.25 0.148438 3.074219 0.148438 C 4.898438 0.148438 5.609375 -0.625 5.609375 -3.179688 L 5.609375 -3.777344 C 5.609375 -6.324219 4.898438 -7.097656 3.074219 -7.097656 Z M 3.074219 -5.84375 C 3.972656 -5.84375 4.34375 -5.613281 4.34375 -3.769531 L 4.34375 -3.179688 C 4.34375 -1.335938 3.972656 -1.105469 3.074219 -1.105469 C 2.175781 -1.105469 1.804688 -1.335938 1.804688 -3.179688 L 1.804688 -3.769531 C 1.804688 -5.613281 2.175781 -5.84375 3.074219 -5.84375 Z M 3.074219 -5.84375 "/></g></g></g><g fill="#f6f7ff" fill-opacity="1"><g transform="translate(92.230635, 257.373763)"><g><path d="M 0.765625 0 L 1.539062 0 C 1.628906 0 1.691406 -0.0585938 1.691406 -0.148438 L 1.691406 -4.34375 L 1.757812 -4.34375 L 2.609375 -0.121094 C 2.625 -0.0390625 2.703125 0 2.785156 0 L 3.363281 0 C 3.445312 0 3.523438 -0.0390625 3.539062 -0.121094 L 4.390625 -4.34375 L 4.457031 -4.34375 L 4.457031 -0.148438 C 4.457031 -0.0585938 4.519531 0 4.609375 0 L 5.382812 0 C 5.472656 0 5.535156 -0.0585938 5.535156 -0.148438 L 5.535156 -6.847656 C 5.535156 -6.9375 5.472656 -7 5.382812 -7 L 4.34375 -7 C 4.265625 -7 4.179688 -6.96875 4.164062 -6.898438 L 3.109375 -1.449219 L 3.039062 -1.449219 L 1.984375 -6.898438 C 1.96875 -6.96875 1.882812 -7 1.804688 -7 L 0.765625 -7 C 0.675781 -7 0.613281 -6.9375 0.613281 -6.847656 L 0.613281 -0.148438 C 0.613281 -0.0585938 0.675781 0 0.765625 0 Z M 0.765625 0 "/></g></g></g><g fill="#f6f7ff" fill-opacity="1"><g transform="translate(98.178207, 257.373763)"><g><path d="M 0.765625 0 L 1.539062 0 C 1.628906 0 1.691406 -0.0585938 1.691406 -0.148438 L 1.691406 -4.34375 L 1.757812 -4.34375 L 2.609375 -0.121094 C 2.625 -0.0390625 2.703125 0 2.785156 0 L 3.363281 0 C 3.445312 0 3.523438 -0.0390625 3.539062 -0.121094 L 4.390625 -4.34375 L 4.457031 -4.34375 L 4.457031 -0.148438 C 4.457031 -0.0585938 4.519531 0 4.609375 0 L 5.382812 0 C 5.472656 0 5.535156 -0.0585938 5.535156 -0.148438 L 5.535156 -6.847656 C 5.535156 -6.9375 5.472656 -7 5.382812 -7 L 4.34375 -7 C 4.265625 -7 4.179688 -6.96875 4.164062 -6.898438 L 3.109375 -1.449219 L 3.039062 -1.449219 L 1.984375 -6.898438 C 1.96875 -6.96875 1.882812 -7 1.804688 -7 L 0.765625 -7 C 0.675781 -7 0.613281 -6.9375 0.613281 -6.847656 L 0.613281 -0.148438 C 0.613281 -0.0585938 0.675781 0 0.765625 0 Z M 0.765625 0 "/></g></g></g><g fill="#f6f7ff" fill-opacity="1"><g transform="translate(104.125778, 257.373763)"><g><path d="M 5.269531 -1.160156 L 2.089844 -1.160156 L 2.089844 -3 L 5.003906 -3 C 5.09375 -3 5.152344 -3.058594 5.152344 -3.148438 L 5.152344 -4.015625 C 5.152344 -4.105469 5.09375 -4.164062 5.003906 -4.164062 L 2.089844 -4.164062 L 2.089844 -5.839844 L 5.257812 -5.839844 C 5.347656 -5.839844 5.410156 -5.898438 5.410156 -5.988281 L 5.410156 -6.847656 C 5.410156 -6.9375 5.347656 -7 5.257812 -7 L 0.933594 -7 C 0.84375 -7 0.785156 -6.9375 0.785156 -6.847656 L 0.785156 -0.148438 C 0.785156 -0.0585938 0.84375 0 0.933594 0 L 5.269531 0 C 5.359375 0 5.417969 -0.0585938 5.417969 -0.148438 L 5.417969 -1.007812 C 5.417969 -1.101562 5.359375 -1.160156 5.269531 -1.160156 Z M 5.269531 -1.160156 "/></g></g></g><g fill="#f6f7ff" fill-opacity="1"><g transform="translate(110.073352, 257.373763)"><g><path d="M 5.359375 -7 L 4.484375 -7 C 4.394531 -7 4.332031 -6.9375 4.332031 -6.847656 L 4.332031 -2.085938 L 2.109375 -6.898438 C 2.078125 -6.96875 2.007812 -7 1.929688 -7 L 0.789062 -7 C 0.699219 -7 0.640625 -6.9375 0.640625 -6.847656 L 0.640625 -0.148438 C 0.640625 -0.0585938 0.699219 0 0.789062 0 L 1.664062 0 C 1.753906 0 1.816406 -0.0585938 1.816406 -0.148438 L 1.816406 -4.914062 L 4.039062 -0.101562 C 4.070312 -0.03125 4.140625 0 4.21875 0 L 5.359375 0 C 5.449219 0 5.507812 -0.0585938 5.507812 -0.148438 L 5.507812 -6.847656 C 5.507812 -6.9375 5.449219 -7 5.359375 -7 Z M 5.359375 -7 "/></g></g></g><g fill="#f6f7ff" fill-opacity="1"><g transform="translate(116.020927, 257.373763)"><g><path d="M 2.84375 -7 L 0.789062 -7 C 0.699219 -7 0.640625 -6.9375 0.640625 -6.847656 L 0.640625 -0.148438 C 0.640625 -0.0585938 0.699219 0 0.789062 0 L 2.84375 0 C 5.082031 0 5.703125 -1.429688 5.703125 -3.5 C 5.703125 -5.570312 5.082031 -7 2.84375 -7 Z M 2.84375 -1.160156 L 1.945312 -1.160156 L 1.945312 -5.839844 L 2.84375 -5.839844 C 4.148438 -5.839844 4.375 -4.988281 4.375 -3.5 C 4.375 -2.007812 4.148438 -1.160156 2.84375 -1.160156 Z M 2.84375 -1.160156 "/></g></g></g><g fill="#f6f7ff" fill-opacity="1"><g transform="translate(121.968501, 257.373763)"><g><path d="M 5.269531 -1.160156 L 2.089844 -1.160156 L 2.089844 -3 L 5.003906 -3 C 5.09375 -3 5.152344 -3.058594 5.152344 -3.148438 L 5.152344 -4.015625 C 5.152344 -4.105469 5.09375 -4.164062 5.003906 -4.164062 L 2.089844 -4.164062 L 2.089844 -5.839844 L 5.257812 -5.839844 C 5.347656 -5.839844 5.410156 -5.898438 5.410156 -5.988281 L 5.410156 -6.847656 C 5.410156 -6.9375 5.347656 -7 5.257812 -7 L 0.933594 -7 C 0.84375 -7 0.785156 -6.9375 0.785156 -6.847656 L 0.785156 -0.148438 C 0.785156 -0.0585938 0.84375 0 0.933594 0 L 5.269531 0 C 5.359375 0 5.417969 -0.0585938 5.417969 -0.148438 L 5.417969 -1.007812 C 5.417969 -1.101562 5.359375 -1.160156 5.269531 -1.160156 Z M 5.269531 -1.160156 "/></g></g></g><g fill="#f6f7ff" fill-opacity="1"><g transform="translate(127.916075, 257.373763)"><g><path d="M 2.84375 -7 L 0.789062 -7 C 0.699219 -7 0.640625 -6.9375 0.640625 -6.847656 L 0.640625 -0.148438 C 0.640625 -0.0585938 0.699219 0 0.789062 0 L 2.84375 0 C 5.082031 0 5.703125 -1.429688 5.703125 -3.5 C 5.703125 -5.570312 5.082031 -7 2.84375 -7 Z M 2.84375 -1.160156 L 1.945312 -1.160156 L 1.945312 -5.839844 L 2.84375 -5.839844 C 4.148438 -5.839844 4.375 -4.988281 4.375 -3.5 C 4.375 -2.007812 4.148438 -1.160156 2.84375 -1.160156 Z M 2.84375 -1.160156 "/></g></g></g><g fill="#f6f7ff" fill-opacity="1"><g transform="translate(133.863649, 257.373763)"><g/></g></g><g fill="#f6f7ff" fill-opacity="1"><g transform="translate(139.811224, 257.373763)"><g><path d="M 5.542969 -3.710938 L 3 -3.710938 C 2.910156 -3.710938 2.847656 -3.648438 2.847656 -3.558594 L 2.847656 -2.75 C 2.847656 -2.660156 2.910156 -2.597656 3 -2.597656 L 4.457031 -2.597656 C 4.445312 -1.414062 4.078125 -1.105469 3.152344 -1.105469 C 2.304688 -1.105469 1.847656 -1.40625 1.847656 -3.179688 L 1.847656 -3.769531 C 1.847656 -5.542969 2.304688 -5.839844 3.167969 -5.839844 C 3.925781 -5.839844 4.292969 -5.683594 4.410156 -4.933594 C 4.425781 -4.84375 4.492188 -4.804688 4.582031 -4.804688 L 5.5 -4.804688 C 5.597656 -4.804688 5.644531 -4.863281 5.636719 -4.964844 C 5.511719 -6.535156 4.714844 -7.097656 3.128906 -7.097656 C 1.324219 -7.097656 0.585938 -6.320312 0.585938 -3.777344 L 0.585938 -3.167969 C 0.585938 -0.636719 1.324219 0.148438 3.152344 0.148438 C 4.953125 0.140625 5.695312 -0.664062 5.695312 -2.683594 L 5.695312 -3.558594 C 5.695312 -3.648438 5.632812 -3.710938 5.542969 -3.710938 Z M 5.542969 -3.710938 "/></g></g></g><g fill="#f6f7ff" fill-opacity="1"><g transform="translate(145.758798, 257.373763)"><g><path d="M 5.359375 -7 L 4.355469 -7 C 4.265625 -7 4.203125 -6.9375 4.203125 -6.847656 L 4.203125 -2.578125 C 4.203125 -1.585938 3.867188 -1.101562 3.074219 -1.101562 C 2.289062 -1.101562 1.945312 -1.585938 1.945312 -2.578125 L 1.945312 -6.847656 C 1.945312 -6.9375 1.882812 -7 1.792969 -7 L 0.789062 -7 C 0.699219 -7 0.640625 -6.9375 0.640625 -6.847656 L 0.640625 -2.5625 C 0.640625 -0.648438 1.464844 0.148438 3.074219 0.148438 C 4.695312 0.148438 5.507812 -0.648438 5.507812 -2.5625 L 5.507812 -6.847656 C 5.507812 -6.9375 5.449219 -7 5.359375 -7 Z M 5.359375 -7 "/></g></g></g><g fill="#f6f7ff" fill-opacity="1"><g transform="translate(151.706372, 257.373763)"><g><path d="M 5.324219 -5.839844 C 5.414062 -5.839844 5.472656 -5.898438 5.472656 -5.988281 L 5.472656 -6.847656 C 5.472656 -6.9375 5.414062 -7 5.324219 -7 L 0.824219 -7 C 0.734375 -7 0.675781 -6.9375 0.675781 -6.847656 L 0.675781 -5.988281 C 0.675781 -5.898438 0.734375 -5.839844 0.824219 -5.839844 L 2.417969 -5.839844 L 2.417969 -1.160156 L 0.824219 -1.160156 C 0.734375 -1.160156 0.675781 -1.101562 0.675781 -1.007812 L 0.675781 -0.148438 C 0.675781 -0.0585938 0.734375 0 0.824219 0 L 5.324219 0 C 5.414062 0 5.472656 -0.0585938 5.472656 -0.148438 L 5.472656 -1.007812 C 5.472656 -1.101562 5.414062 -1.160156 5.324219 -1.160156 L 3.730469 -1.160156 L 3.730469 -5.839844 Z M 5.324219 -5.839844 "/></g></g></g><g fill="#f6f7ff" fill-opacity="1"><g transform="translate(157.653946, 257.373763)"><g><path d="M 2.84375 -7 L 0.789062 -7 C 0.699219 -7 0.640625 -6.9375 0.640625 -6.847656 L 0.640625 -0.148438 C 0.640625 -0.0585938 0.699219 0 0.789062 0 L 2.84375 0 C 5.082031 0 5.703125 -1.429688 5.703125 -3.5 C 5.703125 -5.570312 5.082031 -7 2.84375 -7 Z M 2.84375 -1.160156 L 1.945312 -1.160156 L 1.945312 -5.839844 L 2.84375 -5.839844 C 4.148438 -5.839844 4.375 -4.988281 4.375 -3.5 C 4.375 -2.007812 4.148438 -1.160156 2.84375 -1.160156 Z M 2.84375 -1.160156 "/></g></g></g><g fill="#f6f7ff" fill-opacity="1"><g transform="translate(163.601521, 257.373763)"><g><path d="M 5.832031 -0.171875 L 4.058594 -6.878906 C 4.035156 -6.957031 3.964844 -7 3.882812 -7 L 2.265625 -7 C 2.183594 -7 2.113281 -6.957031 2.089844 -6.878906 L 0.320312 -0.171875 C 0.289062 -0.0703125 0.328125 0 0.441406 0 L 1.453125 0 C 1.535156 0 1.605469 -0.03125 1.625 -0.121094 L 1.90625 -1.257812 L 4.242188 -1.257812 L 4.523438 -0.121094 C 4.542969 -0.03125 4.613281 0 4.695312 0 L 5.714844 0 C 5.824219 0 5.859375 -0.0703125 5.832031 -0.171875 Z M 2.179688 -2.378906 L 2.984375 -5.648438 L 3.164062 -5.648438 L 3.96875 -2.378906 Z M 2.179688 -2.378906 "/></g></g></g><g fill="#f6f7ff" fill-opacity="1"><g transform="translate(169.549095, 257.373763)"><g><path d="M 5.359375 -7 L 4.484375 -7 C 4.394531 -7 4.332031 -6.9375 4.332031 -6.847656 L 4.332031 -2.085938 L 2.109375 -6.898438 C 2.078125 -6.96875 2.007812 -7 1.929688 -7 L 0.789062 -7 C 0.699219 -7 0.640625 -6.9375 0.640625 -6.847656 L 0.640625 -0.148438 C 0.640625 -0.0585938 0.699219 0 0.789062 0 L 1.664062 0 C 1.753906 0 1.816406 -0.0585938 1.816406 -0.148438 L 1.816406 -4.914062 L 4.039062 -0.101562 C 4.070312 -0.03125 4.140625 0 4.21875 0 L 5.359375 0 C 5.449219 0 5.507812 -0.0585938 5.507812 -0.148438 L 5.507812 -6.847656 C 5.507812 -6.9375 5.449219 -7 5.359375 -7 Z M 5.359375 -7 "/></g></g></g><g fill="#f6f7ff" fill-opacity="1"><g transform="translate(175.496669, 257.373763)"><g><path d="M 3.183594 -1.105469 C 2.320312 -1.105469 1.859375 -1.40625 1.859375 -3.179688 L 1.859375 -3.769531 C 1.859375 -5.542969 2.320312 -5.839844 3.183594 -5.839844 C 3.933594 -5.839844 4.308594 -5.683594 4.417969 -4.933594 C 4.433594 -4.84375 4.503906 -4.804688 4.59375 -4.804688 L 5.507812 -4.804688 C 5.609375 -4.804688 5.652344 -4.863281 5.648438 -4.964844 C 5.523438 -6.535156 4.730469 -7.097656 3.140625 -7.097656 C 1.335938 -7.097656 0.59375 -6.320312 0.59375 -3.777344 L 0.59375 -3.167969 C 0.59375 -0.636719 1.335938 0.148438 3.140625 0.148438 C 4.730469 0.148438 5.523438 -0.414062 5.648438 -1.984375 C 5.652344 -2.085938 5.609375 -2.144531 5.507812 -2.144531 L 4.59375 -2.144531 C 4.503906 -2.144531 4.433594 -2.105469 4.417969 -2.015625 C 4.308594 -1.265625 3.972656 -1.105469 3.183594 -1.105469 Z M 3.183594 -1.105469 "/></g></g></g><g fill="#f6f7ff" fill-opacity="1"><g transform="translate(181.444243, 257.373763)"><g><path d="M 5.269531 -1.160156 L 2.089844 -1.160156 L 2.089844 -3 L 5.003906 -3 C 5.09375 -3 5.152344 -3.058594 5.152344 -3.148438 L 5.152344 -4.015625 C 5.152344 -4.105469 5.09375 -4.164062 5.003906 -4.164062 L 2.089844 -4.164062 L 2.089844 -5.839844 L 5.257812 -5.839844 C 5.347656 -5.839844 5.410156 -5.898438 5.410156 -5.988281 L 5.410156 -6.847656 C 5.410156 -6.9375 5.347656 -7 5.257812 -7 L 0.933594 -7 C 0.84375 -7 0.785156 -6.9375 0.785156 -6.847656 L 0.785156 -0.148438 C 0.785156 -0.0585938 0.84375 0 0.933594 0 L 5.269531 0 C 5.359375 0 5.417969 -0.0585938 5.417969 -0.148438 L 5.417969 -1.007812 C 5.417969 -1.101562 5.359375 -1.160156 5.269531 -1.160156 Z M 5.269531 -1.160156 "/></g></g></g><g fill="#f6f7ff" fill-opacity="1"><g transform="translate(187.391818, 257.373763)"><g/></g></g><g fill="#f6f7ff" fill-opacity="1"><g transform="translate(193.339392, 257.373763)"><g><path d="M 5.324219 -7 L 0.925781 -7 C 0.835938 -7 0.773438 -6.9375 0.773438 -6.847656 L 0.773438 -0.148438 C 0.773438 -0.0585938 0.835938 0 0.925781 0 L 1.929688 0 C 2.019531 0 2.078125 -0.0585938 2.078125 -0.148438 L 2.078125 -2.933594 L 5.09375 -2.933594 C 5.183594 -2.933594 5.242188 -2.996094 5.242188 -3.085938 L 5.242188 -3.949219 C 5.242188 -4.039062 5.183594 -4.097656 5.09375 -4.097656 L 2.078125 -4.097656 L 2.078125 -5.839844 L 5.324219 -5.839844 C 5.414062 -5.839844 5.472656 -5.898438 5.472656 -5.988281 L 5.472656 -6.847656 C 5.472656 -6.9375 5.414062 -7 5.324219 -7 Z M 5.324219 -7 "/></g></g></g><g fill="#f6f7ff" fill-opacity="1"><g transform="translate(199.286966, 257.373763)"><g><path d="M 3.074219 -7.097656 C 1.25 -7.097656 0.539062 -6.324219 0.539062 -3.777344 L 0.539062 -3.179688 C 0.539062 -0.625 1.25 0.148438 3.074219 0.148438 C 4.898438 0.148438 5.609375 -0.625 5.609375 -3.179688 L 5.609375 -3.777344 C 5.609375 -6.324219 4.898438 -7.097656 3.074219 -7.097656 Z M 3.074219 -5.84375 C 3.972656 -5.84375 4.34375 -5.613281 4.34375 -3.769531 L 4.34375 -3.179688 C 4.34375 -1.335938 3.972656 -1.105469 3.074219 -1.105469 C 2.175781 -1.105469 1.804688 -1.335938 1.804688 -3.179688 L 1.804688 -3.769531 C 1.804688 -5.613281 2.175781 -5.84375 3.074219 -5.84375 Z M 3.074219 -5.84375 "/></g></g></g><g fill="#f6f7ff" fill-opacity="1"><g transform="translate(205.23454, 257.373763)"><g><path d="M 4.453125 -2.585938 C 5.332031 -2.882812 5.605469 -3.613281 5.605469 -4.714844 C 5.605469 -6.195312 5.113281 -7 3.292969 -7 L 0.851562 -7 C 0.761719 -7 0.699219 -6.9375 0.699219 -6.847656 L 0.699219 -0.148438 C 0.699219 -0.0585938 0.761719 0 0.851562 0 L 1.855469 0 C 1.945312 0 2.003906 -0.0585938 2.003906 -0.148438 L 2.003906 -2.425781 L 3.265625 -2.425781 L 4.324219 -0.113281 C 4.359375 -0.0351562 4.414062 0 4.5 0 L 5.464844 0 C 5.578125 0 5.625 -0.0703125 5.574219 -0.175781 Z M 2.003906 -5.839844 L 3.292969 -5.839844 C 4.050781 -5.839844 4.347656 -5.707031 4.347656 -4.714844 C 4.347656 -3.714844 4.050781 -3.585938 3.292969 -3.585938 L 2.003906 -3.585938 Z M 2.003906 -5.839844 "/></g></g></g><g fill="#f6f7ff" fill-opacity="1"><g transform="translate(211.182114, 257.373763)"><g/></g></g><g fill="#f6f7ff" fill-opacity="1"><g transform="translate(217.129689, 257.373763)"><g><path d="M 3.074219 -7.097656 C 1.25 -7.097656 0.539062 -6.324219 0.539062 -3.777344 L 0.539062 -3.179688 C 0.539062 -0.625 1.25 0.148438 3.074219 0.148438 C 4.898438 0.148438 5.609375 -0.625 5.609375 -3.179688 L 5.609375 -3.777344 C 5.609375 -6.324219 4.898438 -7.097656 3.074219 -7.097656 Z M 3.074219 -5.84375 C 3.972656 -5.84375 4.34375 -5.613281 4.34375 -3.769531 L 4.34375 -3.179688 C 4.34375 -1.335938 3.972656 -1.105469 3.074219 -1.105469 C 2.175781 -1.105469 1.804688 -1.335938 1.804688 -3.179688 L 1.804688 -3.769531 C 1.804688 -5.613281 2.175781 -5.84375 3.074219 -5.84375 Z M 3.074219 -5.84375 "/></g></g></g><g fill="#f6f7ff" fill-opacity="1"><g transform="translate(223.077263, 257.373763)"><g><path d="M 4.238281 -3.753906 C 4.949219 -3.960938 5.25 -4.507812 5.25 -5.234375 C 5.25 -6.171875 4.730469 -7 3.230469 -7 L 0.738281 -7 C 0.648438 -7 0.589844 -6.9375 0.589844 -6.847656 L 0.589844 -0.148438 C 0.589844 -0.0585938 0.648438 0 0.738281 0 L 3.140625 0 C 4.921875 0 5.609375 -0.644531 5.609375 -2.003906 C 5.609375 -2.917969 5.179688 -3.558594 4.238281 -3.753906 Z M 4.023438 -5.082031 C 4.023438 -4.503906 3.785156 -4.222656 3.109375 -4.222656 L 1.894531 -4.222656 L 1.894531 -5.839844 L 3.109375 -5.839844 C 3.773438 -5.839844 4.023438 -5.628906 4.023438 -5.082031 Z M 3.167969 -1.160156 L 1.894531 -1.160156 L 1.894531 -3.132812 L 3.167969 -3.132812 C 3.988281 -3.132812 4.300781 -2.789062 4.300781 -2.125 C 4.300781 -1.445312 3.980469 -1.160156 3.167969 -1.160156 Z M 3.167969 -1.160156 "/></g></g></g><g fill="#f6f7ff" fill-opacity="1"><g transform="translate(229.024837, 257.373763)"><g><path d="M 5.269531 -1.160156 L 2.089844 -1.160156 L 2.089844 -3 L 5.003906 -3 C 5.09375 -3 5.152344 -3.058594 5.152344 -3.148438 L 5.152344 -4.015625 C 5.152344 -4.105469 5.09375 -4.164062 5.003906 -4.164062 L 2.089844 -4.164062 L 2.089844 -5.839844 L 5.257812 -5.839844 C 5.347656 -5.839844 5.410156 -5.898438 5.410156 -5.988281 L 5.410156 -6.847656 C 5.410156 -6.9375 5.347656 -7 5.257812 -7 L 0.933594 -7 C 0.84375 -7 0.785156 -6.9375 0.785156 -6.847656 L 0.785156 -0.148438 C 0.785156 -0.0585938 0.84375 0 0.933594 0 L 5.269531 0 C 5.359375 0 5.417969 -0.0585938 5.417969 -0.148438 L 5.417969 -1.007812 C 5.417969 -1.101562 5.359375 -1.160156 5.269531 -1.160156 Z M 5.269531 -1.160156 "/></g></g></g><g fill="#f6f7ff" fill-opacity="1"><g transform="translate(234.972411, 257.373763)"><g><path d="M 3.015625 -4.125 C 2.078125 -4.308594 1.882812 -4.632812 1.882812 -5.109375 C 1.882812 -5.617188 2.300781 -5.933594 3.015625 -5.933594 C 3.792969 -5.933594 4.21875 -5.648438 4.304688 -5.257812 C 4.324219 -5.179688 4.363281 -5.125 4.453125 -5.125 L 5.320312 -5.125 C 5.410156 -5.125 5.46875 -5.1875 5.457031 -5.289062 C 5.332031 -6.539062 4.453125 -7.097656 3 -7.097656 C 1.394531 -7.097656 0.621094 -6.324219 0.621094 -5.109375 C 0.621094 -3.722656 1.757812 -3.246094 3.015625 -2.980469 C 4.027344 -2.765625 4.390625 -2.539062 4.390625 -1.882812 C 4.390625 -1.292969 3.894531 -1.03125 3.050781 -1.03125 C 2.265625 -1.03125 1.824219 -1.28125 1.714844 -1.722656 C 1.695312 -1.804688 1.65625 -1.871094 1.566406 -1.871094 L 0.628906 -1.871094 C 0.539062 -1.871094 0.480469 -1.792969 0.488281 -1.695312 C 0.605469 -0.410156 1.460938 0.148438 3.050781 0.148438 C 4.8125 0.148438 5.667969 -0.558594 5.667969 -1.917969 C 5.667969 -3.429688 4.347656 -3.863281 3.015625 -4.125 Z M 3.015625 -4.125 "/></g></g></g><g fill="#f6f7ff" fill-opacity="1"><g transform="translate(240.919986, 257.373763)"><g><path d="M 5.324219 -5.839844 C 5.414062 -5.839844 5.472656 -5.898438 5.472656 -5.988281 L 5.472656 -6.847656 C 5.472656 -6.9375 5.414062 -7 5.324219 -7 L 0.824219 -7 C 0.734375 -7 0.675781 -6.9375 0.675781 -6.847656 L 0.675781 -5.988281 C 0.675781 -5.898438 0.734375 -5.839844 0.824219 -5.839844 L 2.417969 -5.839844 L 2.417969 -1.160156 L 0.824219 -1.160156 C 0.734375 -1.160156 0.675781 -1.101562 0.675781 -1.007812 L 0.675781 -0.148438 C 0.675781 -0.0585938 0.734375 0 0.824219 0 L 5.324219 0 C 5.414062 0 5.472656 -0.0585938 5.472656 -0.148438 L 5.472656 -1.007812 C 5.472656 -1.101562 5.414062 -1.160156 5.324219 -1.160156 L 3.730469 -1.160156 L 3.730469 -5.839844 Z M 5.324219 -5.839844 "/></g></g></g><g fill="#f6f7ff" fill-opacity="1"><g transform="translate(246.867548, 257.373763)"><g><path d="M 5.5 -7 L 0.648438 -7 C 0.558594 -7 0.5 -6.9375 0.5 -6.847656 L 0.5 -5.988281 C 0.5 -5.898438 0.558594 -5.839844 0.648438 -5.839844 L 2.417969 -5.839844 L 2.417969 -0.148438 C 2.417969 -0.0585938 2.480469 0 2.570312 0 L 3.578125 0 C 3.667969 0 3.730469 -0.0585938 3.730469 -0.148438 L 3.730469 -5.839844 L 5.5 -5.839844 C 5.589844 -5.839844 5.648438 -5.898438 5.648438 -5.988281 L 5.648438 -6.847656 C 5.648438 -6.9375 5.589844 -7 5.5 -7 Z M 5.5 -7 "/></g></g></g><g fill="#f6f7ff" fill-opacity="1"><g transform="translate(252.815111, 257.373763)"><g><path d="M 5.730469 -7 L 4.667969 -7 C 4.589844 -7 4.519531 -6.96875 4.488281 -6.898438 L 3.074219 -4.023438 L 1.660156 -6.898438 C 1.628906 -6.96875 1.558594 -7 1.480469 -7 L 0.417969 -7 C 0.300781 -7 0.261719 -6.929688 0.320312 -6.816406 L 2.417969 -2.808594 L 2.417969 -0.148438 C 2.417969 -0.0585938 2.480469 0 2.570312 0 L 3.578125 0 C 3.667969 0 3.730469 -0.0585938 3.730469 -0.148438 L 3.730469 -2.789062 L 5.828125 -6.816406 C 5.886719 -6.929688 5.847656 -7 5.730469 -7 Z M 5.730469 -7 "/></g></g></g><g fill="#f6f7ff" fill-opacity="1"><g transform="translate(258.762674, 257.373763)"><g/></g></g><g fill="#f6f7ff" fill-opacity="1"><g transform="translate(264.710237, 257.373763)"><g><path d="M 0.765625 0 L 1.539062 0 C 1.628906 0 1.691406 -0.0585938 1.691406 -0.148438 L 1.691406 -4.34375 L 1.757812 -4.34375 L 2.609375 -0.121094 C 2.625 -0.0390625 2.703125 0 2.785156 0 L 3.363281 0 C 3.445312 0 3.523438 -0.0390625 3.539062 -0.121094 L 4.390625 -4.34375 L 4.457031 -4.34375 L 4.457031 -0.148438 C 4.457031 -0.0585938 4.519531 0 4.609375 0 L 5.382812 0 C 5.472656 0 5.535156 -0.0585938 5.535156 -0.148438 L 5.535156 -6.847656 C 5.535156 -6.9375 5.472656 -7 5.382812 -7 L 4.34375 -7 C 4.265625 -7 4.179688 -6.96875 4.164062 -6.898438 L 3.109375 -1.449219 L 3.039062 -1.449219 L 1.984375 -6.898438 C 1.96875 -6.96875 1.882812 -7 1.804688 -7 L 0.765625 -7 C 0.675781 -7 0.613281 -6.9375 0.613281 -6.847656 L 0.613281 -0.148438 C 0.613281 -0.0585938 0.675781 0 0.765625 0 Z M 0.765625 0 "/></g></g></g><g fill="#f6f7ff" fill-opacity="1"><g transform="translate(270.657799, 257.373763)"><g><path d="M 5.832031 -0.171875 L 4.058594 -6.878906 C 4.035156 -6.957031 3.964844 -7 3.882812 -7 L 2.265625 -7 C 2.183594 -7 2.113281 -6.957031 2.089844 -6.878906 L 0.320312 -0.171875 C 0.289062 -0.0703125 0.328125 0 0.441406 0 L 1.453125 0 C 1.535156 0 1.605469 -0.03125 1.625 -0.121094 L 1.90625 -1.257812 L 4.242188 -1.257812 L 4.523438 -0.121094 C 4.542969 -0.03125 4.613281 0 4.695312 0 L 5.714844 0 C 5.824219 0 5.859375 -0.0703125 5.832031 -0.171875 Z M 2.179688 -2.378906 L 2.984375 -5.648438 L 3.164062 -5.648438 L 3.96875 -2.378906 Z M 2.179688 -2.378906 "/></g></g></g><g fill="#f6f7ff" fill-opacity="1"><g transform="translate(276.605362, 257.373763)"><g><path d="M 5.359375 -7 L 4.484375 -7 C 4.394531 -7 4.332031 -6.9375 4.332031 -6.847656 L 4.332031 -2.085938 L 2.109375 -6.898438 C 2.078125 -6.96875 2.007812 -7 1.929688 -7 L 0.789062 -7 C 0.699219 -7 0.640625 -6.9375 0.640625 -6.847656 L 0.640625 -0.148438 C 0.640625 -0.0585938 0.699219 0 0.789062 0 L 1.664062 0 C 1.753906 0 1.816406 -0.0585938 1.816406 -0.148438 L 1.816406 -4.914062 L 4.039062 -0.101562 C 4.070312 -0.03125 4.140625 0 4.21875 0 L 5.359375 0 C 5.449219 0 5.507812 -0.0585938 5.507812 -0.148438 L 5.507812 -6.847656 C 5.507812 -6.9375 5.449219 -7 5.359375 -7 Z M 5.359375 -7 "/></g></g></g><g fill="#f6f7ff" fill-opacity="1"><g transform="translate(282.552925, 257.373763)"><g><path d="M 5.832031 -0.171875 L 4.058594 -6.878906 C 4.035156 -6.957031 3.964844 -7 3.882812 -7 L 2.265625 -7 C 2.183594 -7 2.113281 -6.957031 2.089844 -6.878906 L 0.320312 -0.171875 C 0.289062 -0.0703125 0.328125 0 0.441406 0 L 1.453125 0 C 1.535156 0 1.605469 -0.03125 1.625 -0.121094 L 1.90625 -1.257812 L 4.242188 -1.257812 L 4.523438 -0.121094 C 4.542969 -0.03125 4.613281 0 4.695312 0 L 5.714844 0 C 5.824219 0 5.859375 -0.0703125 5.832031 -0.171875 Z M 2.179688 -2.378906 L 2.984375 -5.648438 L 3.164062 -5.648438 L 3.96875 -2.378906 Z M 2.179688 -2.378906 "/></g></g></g><g fill="#f6f7ff" fill-opacity="1"><g transform="translate(288.500488, 257.373763)"><g><path d="M 5.542969 -3.710938 L 3 -3.710938 C 2.910156 -3.710938 2.847656 -3.648438 2.847656 -3.558594 L 2.847656 -2.75 C 2.847656 -2.660156 2.910156 -2.597656 3 -2.597656 L 4.457031 -2.597656 C 4.445312 -1.414062 4.078125 -1.105469 3.152344 -1.105469 C 2.304688 -1.105469 1.847656 -1.40625 1.847656 -3.179688 L 1.847656 -3.769531 C 1.847656 -5.542969 2.304688 -5.839844 3.167969 -5.839844 C 3.925781 -5.839844 4.292969 -5.683594 4.410156 -4.933594 C 4.425781 -4.84375 4.492188 -4.804688 4.582031 -4.804688 L 5.5 -4.804688 C 5.597656 -4.804688 5.644531 -4.863281 5.636719 -4.964844 C 5.511719 -6.535156 4.714844 -7.097656 3.128906 -7.097656 C 1.324219 -7.097656 0.585938 -6.320312 0.585938 -3.777344 L 0.585938 -3.167969 C 0.585938 -0.636719 1.324219 0.148438 3.152344 0.148438 C 4.953125 0.140625 5.695312 -0.664062 5.695312 -2.683594 L 5.695312 -3.558594 C 5.695312 -3.648438 5.632812 -3.710938 5.542969 -3.710938 Z M 5.542969 -3.710938 "/></g></g></g><g fill="#f6f7ff" fill-opacity="1"><g transform="translate(294.44805, 257.373763)"><g><path d="M 5.269531 -1.160156 L 2.089844 -1.160156 L 2.089844 -3 L 5.003906 -3 C 5.09375 -3 5.152344 -3.058594 5.152344 -3.148438 L 5.152344 -4.015625 C 5.152344 -4.105469 5.09375 -4.164062 5.003906 -4.164062 L 2.089844 -4.164062 L 2.089844 -5.839844 L 5.257812 -5.839844 C 5.347656 -5.839844 5.410156 -5.898438 5.410156 -5.988281 L 5.410156 -6.847656 C 5.410156 -6.9375 5.347656 -7 5.257812 -7 L 0.933594 -7 C 0.84375 -7 0.785156 -6.9375 0.785156 -6.847656 L 0.785156 -0.148438 C 0.785156 -0.0585938 0.84375 0 0.933594 0 L 5.269531 0 C 5.359375 0 5.417969 -0.0585938 5.417969 -0.148438 L 5.417969 -1.007812 C 5.417969 -1.101562 5.359375 -1.160156 5.269531 -1.160156 Z M 5.269531 -1.160156 "/></g></g></g><g fill="#f6f7ff" fill-opacity="1"><g transform="translate(300.395613, 257.373763)"><g><path d="M 0.765625 0 L 1.539062 0 C 1.628906 0 1.691406 -0.0585938 1.691406 -0.148438 L 1.691406 -4.34375 L 1.757812 -4.34375 L 2.609375 -0.121094 C 2.625 -0.0390625 2.703125 0 2.785156 0 L 3.363281 0 C 3.445312 0 3.523438 -0.0390625 3.539062 -0.121094 L 4.390625 -4.34375 L 4.457031 -4.34375 L 4.457031 -0.148438 C 4.457031 -0.0585938 4.519531 0 4.609375 0 L 5.382812 0 C 5.472656 0 5.535156 -0.0585938 5.535156 -0.148438 L 5.535156 -6.847656 C 5.535156 -6.9375 5.472656 -7 5.382812 -7 L 4.34375 -7 C 4.265625 -7 4.179688 -6.96875 4.164062 -6.898438 L 3.109375 -1.449219 L 3.039062 -1.449219 L 1.984375 -6.898438 C 1.96875 -6.96875 1.882812 -7 1.804688 -7 L 0.765625 -7 C 0.675781 -7 0.613281 -6.9375 0.613281 -6.847656 L 0.613281 -0.148438 C 0.613281 -0.0585938 0.675781 0 0.765625 0 Z M 0.765625 0 "/></g></g></g><g fill="#f6f7ff" fill-opacity="1"><g transform="translate(306.343176, 257.373763)"><g><path d="M 5.269531 -1.160156 L 2.089844 -1.160156 L 2.089844 -3 L 5.003906 -3 C 5.09375 -3 5.152344 -3.058594 5.152344 -3.148438 L 5.152344 -4.015625 C 5.152344 -4.105469 5.09375 -4.164062 5.003906 -4.164062 L 2.089844 -4.164062 L 2.089844 -5.839844 L 5.257812 -5.839844 C 5.347656 -5.839844 5.410156 -5.898438 5.410156 -5.988281 L 5.410156 -6.847656 C 5.410156 -6.9375 5.347656 -7 5.257812 -7 L 0.933594 -7 C 0.84375 -7 0.785156 -6.9375 0.785156 -6.847656 L 0.785156 -0.148438 C 0.785156 -0.0585938 0.84375 0 0.933594 0 L 5.269531 0 C 5.359375 0 5.417969 -0.0585938 5.417969 -0.148438 L 5.417969 -1.007812 C 5.417969 -1.101562 5.359375 -1.160156 5.269531 -1.160156 Z M 5.269531 -1.160156 "/></g></g></g><g fill="#f6f7ff" fill-opacity="1"><g transform="translate(312.290739, 257.373763)"><g><path d="M 5.359375 -7 L 4.484375 -7 C 4.394531 -7 4.332031 -6.9375 4.332031 -6.847656 L 4.332031 -2.085938 L 2.109375 -6.898438 C 2.078125 -6.96875 2.007812 -7 1.929688 -7 L 0.789062 -7 C 0.699219 -7 0.640625 -6.9375 0.640625 -6.847656 L 0.640625 -0.148438 C 0.640625 -0.0585938 0.699219 0 0.789062 0 L 1.664062 0 C 1.753906 0 1.816406 -0.0585938 1.816406 -0.148438 L 1.816406 -4.914062 L 4.039062 -0.101562 C 4.070312 -0.03125 4.140625 0 4.21875 0 L 5.359375 0 C 5.449219 0 5.507812 -0.0585938 5.507812 -0.148438 L 5.507812 -6.847656 C 5.507812 -6.9375 5.449219 -7 5.359375 -7 Z M 5.359375 -7 "/></g></g></g><g fill="#f6f7ff" fill-opacity="1"><g transform="translate(318.238302, 257.373763)"><g><path d="M 5.5 -7 L 0.648438 -7 C 0.558594 -7 0.5 -6.9375 0.5 -6.847656 L 0.5 -5.988281 C 0.5 -5.898438 0.558594 -5.839844 0.648438 -5.839844 L 2.417969 -5.839844 L 2.417969 -0.148438 C 2.417969 -0.0585938 2.480469 0 2.570312 0 L 3.578125 0 C 3.667969 0 3.730469 -0.0585938 3.730469 -0.148438 L 3.730469 -5.839844 L 5.5 -5.839844 C 5.589844 -5.839844 5.648438 -5.898438 5.648438 -5.988281 L 5.648438 -6.847656 C 5.648438 -6.9375 5.589844 -7 5.5 -7 Z M 5.5 -7 "/></g></g></g></svg>